G75*
G70*
%OFA0B0*%
%FSLAX24Y24*%
%IPPOS*%
%LPD*%
%AMOC8*
5,1,8,0,0,1.08239X$1,22.5*
%
%ADD10C,0.0000*%
%ADD11C,0.0160*%
%ADD12OC8,0.0660*%
%ADD13C,0.0520*%
%ADD14C,0.0705*%
%ADD15C,0.0660*%
%ADD16R,0.0740X0.0740*%
%ADD17OC8,0.0740*%
%ADD18C,0.0650*%
%ADD19R,0.0650X0.0650*%
%ADD20C,0.0740*%
%ADD21C,0.0320*%
%ADD22C,0.0120*%
D10*
X010210Y000504D02*
X010210Y021500D01*
X028080Y014504D02*
X028082Y014554D01*
X028088Y014604D01*
X028098Y014653D01*
X028112Y014701D01*
X028129Y014748D01*
X028150Y014793D01*
X028175Y014837D01*
X028203Y014878D01*
X028235Y014917D01*
X028269Y014954D01*
X028306Y014988D01*
X028346Y015018D01*
X028388Y015045D01*
X028432Y015069D01*
X028478Y015090D01*
X028525Y015106D01*
X028573Y015119D01*
X028623Y015128D01*
X028672Y015133D01*
X028723Y015134D01*
X028773Y015131D01*
X028822Y015124D01*
X028871Y015113D01*
X028919Y015098D01*
X028965Y015080D01*
X029010Y015058D01*
X029053Y015032D01*
X029094Y015003D01*
X029133Y014971D01*
X029169Y014936D01*
X029201Y014898D01*
X029231Y014858D01*
X029258Y014815D01*
X029281Y014771D01*
X029300Y014725D01*
X029316Y014677D01*
X029328Y014628D01*
X029336Y014579D01*
X029340Y014529D01*
X029340Y014479D01*
X029336Y014429D01*
X029328Y014380D01*
X029316Y014331D01*
X029300Y014283D01*
X029281Y014237D01*
X029258Y014193D01*
X029231Y014150D01*
X029201Y014110D01*
X029169Y014072D01*
X029133Y014037D01*
X029094Y014005D01*
X029053Y013976D01*
X029010Y013950D01*
X028965Y013928D01*
X028919Y013910D01*
X028871Y013895D01*
X028822Y013884D01*
X028773Y013877D01*
X028723Y013874D01*
X028672Y013875D01*
X028623Y013880D01*
X028573Y013889D01*
X028525Y013902D01*
X028478Y013918D01*
X028432Y013939D01*
X028388Y013963D01*
X028346Y013990D01*
X028306Y014020D01*
X028269Y014054D01*
X028235Y014091D01*
X028203Y014130D01*
X028175Y014171D01*
X028150Y014215D01*
X028129Y014260D01*
X028112Y014307D01*
X028098Y014355D01*
X028088Y014404D01*
X028082Y014454D01*
X028080Y014504D01*
D11*
X010210Y021504D02*
X010210Y000504D01*
X028710Y000504D01*
X028710Y001504D01*
X029710Y002504D01*
X029710Y015504D01*
X028710Y016504D01*
X028710Y021004D01*
X028210Y021504D01*
X010210Y021504D01*
X011710Y018504D02*
X010710Y017504D01*
X010710Y016004D01*
X011210Y015504D01*
X011710Y015504D01*
X012210Y016004D02*
X011710Y016504D01*
X012710Y017504D02*
X014210Y016004D01*
X014210Y015004D01*
X013210Y014504D02*
X012710Y014504D01*
X012210Y015004D01*
X015710Y015504D02*
X015710Y019904D01*
X015110Y020504D01*
X013710Y018504D02*
X011710Y018504D01*
X013710Y018504D02*
X014210Y018004D01*
X016210Y018004D02*
X017710Y019504D01*
X023210Y019504D01*
X024726Y017988D01*
X026210Y017988D01*
X024710Y015504D02*
X023710Y016504D01*
X022710Y016504D01*
X022210Y017004D01*
X022210Y018004D01*
X021210Y018004D02*
X021210Y016504D01*
X021710Y016004D01*
X023710Y016004D01*
X024210Y015504D01*
X024210Y013004D01*
X025194Y012020D01*
X026210Y012020D01*
X026210Y013988D02*
X025226Y013988D01*
X024710Y014504D01*
X024710Y015504D01*
X026194Y016020D02*
X023210Y019004D01*
X021210Y019004D01*
X020210Y018004D01*
X018210Y018004D02*
X017710Y017504D01*
X017710Y014504D01*
X016210Y013004D01*
X016210Y012004D01*
X016710Y011504D02*
X014210Y011504D01*
X013210Y010504D01*
X016710Y011504D02*
X017210Y012004D01*
X019210Y012004D01*
X022710Y013504D02*
X023210Y014004D01*
X023210Y015004D01*
X026194Y016020D02*
X026210Y016020D01*
X016210Y015004D02*
X015710Y015504D01*
D12*
X016110Y020504D03*
X015110Y020504D03*
X014110Y020504D03*
X013110Y020504D03*
X012110Y020504D03*
X017110Y020504D03*
X018110Y020504D03*
X019110Y020504D03*
X020710Y020504D03*
X021710Y020504D03*
X022710Y020504D03*
X023710Y020504D03*
X024710Y020504D03*
X025710Y020504D03*
X026710Y020504D03*
X027710Y020504D03*
X027710Y001504D03*
X026710Y001504D03*
X025710Y001504D03*
X024710Y001504D03*
X023710Y001504D03*
X022710Y001504D03*
X020710Y001504D03*
X019710Y001504D03*
X018710Y001504D03*
X017710Y001504D03*
X016710Y001504D03*
X015710Y001504D03*
D13*
X015950Y005004D02*
X016470Y005004D01*
X016470Y006004D02*
X015950Y006004D01*
X015950Y007004D02*
X016470Y007004D01*
X016470Y008004D02*
X015950Y008004D01*
X015950Y009004D02*
X016470Y009004D01*
X016470Y010004D02*
X015950Y010004D01*
X015950Y011004D02*
X016470Y011004D01*
X016470Y012004D02*
X015950Y012004D01*
X018950Y012004D02*
X019470Y012004D01*
X019470Y011004D02*
X018950Y011004D01*
X018950Y010004D02*
X019470Y010004D01*
X019470Y009004D02*
X018950Y009004D01*
X018950Y008004D02*
X019470Y008004D01*
X019470Y007004D02*
X018950Y007004D01*
X018950Y006004D02*
X019470Y006004D01*
X019470Y005004D02*
X018950Y005004D01*
X019210Y014744D02*
X019210Y015264D01*
X020210Y015264D02*
X020210Y014744D01*
X021210Y014744D02*
X021210Y015264D01*
X022210Y015264D02*
X022210Y014744D01*
X023210Y014744D02*
X023210Y015264D01*
X023210Y017744D02*
X023210Y018264D01*
X022210Y018264D02*
X022210Y017744D01*
X021210Y017744D02*
X021210Y018264D01*
X020210Y018264D02*
X020210Y017744D01*
X019210Y017744D02*
X019210Y018264D01*
X018210Y018264D02*
X018210Y017744D01*
X017210Y017744D02*
X017210Y018264D01*
X016210Y018264D02*
X016210Y017744D01*
X015210Y017744D02*
X015210Y018264D01*
X014210Y018264D02*
X014210Y017744D01*
X014210Y015264D02*
X014210Y014744D01*
X015210Y014744D02*
X015210Y015264D01*
X016210Y015264D02*
X016210Y014744D01*
X017210Y014744D02*
X017210Y015264D01*
X018210Y015264D02*
X018210Y014744D01*
D14*
X025857Y013988D02*
X026562Y013988D01*
X026562Y012020D02*
X025857Y012020D01*
X025857Y009988D02*
X026562Y009988D01*
X026562Y008020D02*
X025857Y008020D01*
X025857Y005988D02*
X026562Y005988D01*
X026562Y004020D02*
X025857Y004020D01*
X013694Y002856D02*
X013694Y002151D01*
X011726Y002151D02*
X011726Y002856D01*
X025857Y016020D02*
X026562Y016020D01*
X026562Y017988D02*
X025857Y017988D01*
D15*
X023710Y013504D03*
X022710Y013504D03*
X021710Y013504D03*
X020710Y013504D03*
X020710Y009504D03*
X021710Y009504D03*
X022710Y009504D03*
X023710Y009504D03*
X023710Y007504D03*
X022710Y007504D03*
X021710Y007504D03*
X020710Y007504D03*
X020710Y003504D03*
X021710Y003504D03*
X022710Y003504D03*
X023710Y003504D03*
D16*
X012710Y015504D03*
D17*
X011710Y015504D03*
X011710Y016504D03*
X012710Y016504D03*
X012710Y017504D03*
X011710Y017504D03*
D18*
X013710Y008504D03*
X013210Y006004D03*
D19*
X014210Y006004D03*
X013710Y009504D03*
D20*
X013210Y010504D03*
X011710Y010004D03*
X011710Y014004D03*
X013210Y014504D03*
D21*
X016885Y011255D02*
X017334Y011704D01*
X018571Y011704D01*
X018678Y011597D01*
X018854Y011524D01*
X019210Y011524D01*
X019210Y011484D01*
X018854Y011484D01*
X018678Y011411D01*
X018543Y011276D01*
X018470Y011099D01*
X018470Y010908D01*
X018543Y010732D01*
X018678Y010597D01*
X018854Y010524D01*
X019210Y010524D01*
X019210Y010484D01*
X018854Y010484D01*
X018678Y010411D01*
X018543Y010276D01*
X018470Y010099D01*
X018470Y009908D01*
X018543Y009732D01*
X018678Y009597D01*
X018854Y009524D01*
X019210Y009524D01*
X019210Y009004D01*
X019210Y009004D01*
X019210Y008004D01*
X019210Y008004D01*
X019210Y008524D01*
X019210Y009004D01*
X019210Y009004D01*
X019210Y009524D01*
X018909Y009524D01*
X018828Y009511D01*
X018750Y009486D01*
X018677Y009449D01*
X018611Y009401D01*
X018553Y009343D01*
X018505Y009276D01*
X018468Y009204D01*
X018443Y009126D01*
X018430Y009045D01*
X018430Y009004D01*
X019209Y009004D01*
X019209Y009004D01*
X018430Y009004D01*
X018430Y008963D01*
X018443Y008882D01*
X018468Y008804D01*
X018505Y008731D01*
X018553Y008665D01*
X018611Y008607D01*
X018677Y008559D01*
X018750Y008522D01*
X018806Y008504D01*
X018750Y008486D01*
X018677Y008449D01*
X018611Y008401D01*
X018553Y008343D01*
X018505Y008276D01*
X018468Y008204D01*
X018443Y008126D01*
X018430Y008045D01*
X018430Y008004D01*
X019209Y008004D01*
X019209Y008004D01*
X018430Y008004D01*
X018430Y007963D01*
X018443Y007882D01*
X018468Y007804D01*
X018505Y007731D01*
X018553Y007665D01*
X018611Y007607D01*
X018677Y007559D01*
X018750Y007522D01*
X018828Y007497D01*
X018909Y007484D01*
X019210Y007484D01*
X018854Y007484D01*
X018678Y007411D01*
X018543Y007276D01*
X018470Y007099D01*
X018470Y006908D01*
X018543Y006732D01*
X018678Y006597D01*
X018854Y006524D01*
X019210Y006524D01*
X019210Y006484D01*
X018854Y006484D01*
X018678Y006411D01*
X018543Y006276D01*
X018470Y006099D01*
X018470Y005908D01*
X018543Y005732D01*
X018678Y005597D01*
X018854Y005524D01*
X019210Y005524D01*
X019210Y005484D01*
X018854Y005484D01*
X018678Y005411D01*
X018543Y005276D01*
X018470Y005099D01*
X018470Y004908D01*
X018543Y004732D01*
X018678Y004597D01*
X018854Y004524D01*
X019210Y004524D01*
X019210Y004504D01*
X016210Y004504D01*
X016210Y004524D01*
X016565Y004524D01*
X016742Y004597D01*
X016877Y004732D01*
X016950Y004908D01*
X016950Y005099D01*
X016877Y005276D01*
X016742Y005411D01*
X016565Y005484D01*
X016210Y005484D01*
X016210Y005524D01*
X016565Y005524D01*
X016742Y005597D01*
X016877Y005732D01*
X016950Y005908D01*
X016950Y006099D01*
X016877Y006276D01*
X016742Y006411D01*
X016565Y006484D01*
X016210Y006484D01*
X016210Y006524D01*
X016565Y006524D01*
X016742Y006597D01*
X016877Y006732D01*
X016950Y006908D01*
X016950Y007099D01*
X016877Y007276D01*
X016742Y007411D01*
X016565Y007484D01*
X016210Y007484D01*
X016511Y007484D01*
X016592Y007497D01*
X016669Y007522D01*
X016742Y007559D01*
X016809Y007607D01*
X016866Y007665D01*
X016914Y007731D01*
X016952Y007804D01*
X016977Y007882D01*
X016990Y007963D01*
X016990Y008004D01*
X016990Y008045D01*
X016977Y008126D01*
X016952Y008204D01*
X016914Y008276D01*
X016866Y008343D01*
X016809Y008401D01*
X016742Y008449D01*
X016669Y008486D01*
X016614Y008504D01*
X016669Y008522D01*
X016742Y008559D01*
X016809Y008607D01*
X016866Y008665D01*
X016914Y008731D01*
X016952Y008804D01*
X016977Y008882D01*
X016990Y008963D01*
X016990Y009004D01*
X016990Y009045D01*
X016977Y009126D01*
X016952Y009204D01*
X016914Y009276D01*
X016866Y009343D01*
X016809Y009401D01*
X016742Y009449D01*
X016669Y009486D01*
X016592Y009511D01*
X016511Y009524D01*
X016210Y009524D01*
X016210Y009004D01*
X016990Y009004D01*
X016210Y009004D01*
X016210Y009004D01*
X016210Y009004D01*
X016210Y009524D01*
X016565Y009524D01*
X016742Y009597D01*
X016877Y009732D01*
X016950Y009908D01*
X016950Y010099D01*
X016877Y010276D01*
X016742Y010411D01*
X016565Y010484D01*
X016210Y010484D01*
X016210Y010524D01*
X016565Y010524D01*
X016742Y010597D01*
X016877Y010732D01*
X016950Y010908D01*
X016950Y011099D01*
X016885Y011255D01*
X016964Y011334D02*
X018601Y011334D01*
X018622Y011653D02*
X017283Y011653D01*
X016950Y011016D02*
X018470Y011016D01*
X018578Y010697D02*
X016842Y010697D01*
X016774Y010379D02*
X018646Y010379D01*
X018470Y010060D02*
X016950Y010060D01*
X016881Y009742D02*
X018539Y009742D01*
X018642Y009423D02*
X016777Y009423D01*
X016980Y009105D02*
X018439Y009105D01*
X018477Y008786D02*
X016942Y008786D01*
X016705Y008468D02*
X018714Y008468D01*
X018450Y008149D02*
X016969Y008149D01*
X016990Y008004D02*
X016210Y008004D01*
X016210Y008004D01*
X016210Y008004D01*
X016210Y008524D01*
X016210Y009004D01*
X016210Y009004D01*
X016210Y008004D01*
X016990Y008004D01*
X016960Y007830D02*
X018459Y007830D01*
X018781Y007512D02*
X016638Y007512D01*
X016911Y007193D02*
X018509Y007193D01*
X018484Y006875D02*
X016936Y006875D01*
X016643Y006556D02*
X018776Y006556D01*
X018527Y006238D02*
X016892Y006238D01*
X016950Y005919D02*
X018470Y005919D01*
X018674Y005601D02*
X016745Y005601D01*
X016870Y005282D02*
X018549Y005282D01*
X018470Y004964D02*
X016950Y004964D01*
X016790Y004645D02*
X018630Y004645D01*
X017710Y004504D02*
X019710Y002504D01*
X018710Y002504D01*
X018710Y001504D01*
X019710Y001504D02*
X019710Y002504D01*
X018710Y002504D02*
X013694Y002504D01*
X013694Y002520D01*
X013210Y003004D01*
X013210Y006004D01*
X013210Y008004D01*
X013710Y008504D01*
X016210Y008468D02*
X016210Y008468D01*
X016210Y008786D02*
X016210Y008786D01*
X016210Y009105D02*
X016210Y009105D01*
X016210Y009423D02*
X016210Y009423D01*
X016210Y008149D02*
X016210Y008149D01*
X016210Y008004D02*
X016210Y007484D01*
X016210Y008004D01*
X016210Y008004D01*
X016210Y007830D02*
X016210Y007830D01*
X016210Y007512D02*
X016210Y007512D01*
X019210Y007512D02*
X019210Y007512D01*
X019210Y007484D02*
X019210Y008004D01*
X019210Y007484D01*
X019210Y007830D02*
X019210Y007830D01*
X019210Y008004D02*
X019210Y008004D01*
X019210Y008149D02*
X019210Y008149D01*
X019210Y008468D02*
X019210Y008468D01*
X019210Y008786D02*
X019210Y008786D01*
X019210Y009105D02*
X019210Y009105D01*
X019210Y009423D02*
X019210Y009423D01*
X019210Y010004D02*
X020210Y010004D01*
X020710Y009504D01*
X021710Y009504D01*
X022710Y008504D01*
X023694Y008504D01*
X026210Y005988D01*
X026210Y004020D02*
X026194Y004004D01*
X025210Y004004D01*
X021710Y007504D01*
X020710Y007504D01*
X020210Y007004D01*
X019210Y007004D01*
X020710Y003504D02*
X020710Y002504D01*
X022710Y002504D01*
X022710Y003504D01*
X022710Y002504D02*
X026710Y002504D01*
X027710Y003504D01*
X027710Y010004D01*
X026710Y011004D01*
X023210Y011004D01*
X022710Y011504D01*
X022710Y013504D01*
X022710Y011504D02*
X020710Y013504D01*
X020710Y002504D02*
X019710Y001504D01*
D22*
X012210Y015004D02*
X012210Y016004D01*
M02*
