G75*
G70*
%OFA0B0*%
%FSLAX24Y24*%
%IPPOS*%
%LPD*%
%AMOC8*
5,1,8,0,0,1.08239X$1,22.5*
%
%ADD10C,0.0000*%
%ADD11C,0.0160*%
%ADD12C,0.1300*%
%ADD13OC8,0.0700*%
%ADD14C,0.0560*%
%ADD15C,0.0700*%
%ADD16R,0.0780X0.0780*%
%ADD17OC8,0.0780*%
%ADD18C,0.0690*%
%ADD19R,0.0690X0.0690*%
%ADD20C,0.0780*%
%ADD21R,0.0840X0.0840*%
%ADD22C,0.0840*%
D10*
X010210Y000504D02*
X010210Y021500D01*
X028080Y014504D02*
X028082Y014554D01*
X028088Y014604D01*
X028098Y014653D01*
X028112Y014701D01*
X028129Y014748D01*
X028150Y014793D01*
X028175Y014837D01*
X028203Y014878D01*
X028235Y014917D01*
X028269Y014954D01*
X028306Y014988D01*
X028346Y015018D01*
X028388Y015045D01*
X028432Y015069D01*
X028478Y015090D01*
X028525Y015106D01*
X028573Y015119D01*
X028623Y015128D01*
X028672Y015133D01*
X028723Y015134D01*
X028773Y015131D01*
X028822Y015124D01*
X028871Y015113D01*
X028919Y015098D01*
X028965Y015080D01*
X029010Y015058D01*
X029053Y015032D01*
X029094Y015003D01*
X029133Y014971D01*
X029169Y014936D01*
X029201Y014898D01*
X029231Y014858D01*
X029258Y014815D01*
X029281Y014771D01*
X029300Y014725D01*
X029316Y014677D01*
X029328Y014628D01*
X029336Y014579D01*
X029340Y014529D01*
X029340Y014479D01*
X029336Y014429D01*
X029328Y014380D01*
X029316Y014331D01*
X029300Y014283D01*
X029281Y014237D01*
X029258Y014193D01*
X029231Y014150D01*
X029201Y014110D01*
X029169Y014072D01*
X029133Y014037D01*
X029094Y014005D01*
X029053Y013976D01*
X029010Y013950D01*
X028965Y013928D01*
X028919Y013910D01*
X028871Y013895D01*
X028822Y013884D01*
X028773Y013877D01*
X028723Y013874D01*
X028672Y013875D01*
X028623Y013880D01*
X028573Y013889D01*
X028525Y013902D01*
X028478Y013918D01*
X028432Y013939D01*
X028388Y013963D01*
X028346Y013990D01*
X028306Y014020D01*
X028269Y014054D01*
X028235Y014091D01*
X028203Y014130D01*
X028175Y014171D01*
X028150Y014215D01*
X028129Y014260D01*
X028112Y014307D01*
X028098Y014355D01*
X028088Y014404D01*
X028082Y014454D01*
X028080Y014504D01*
D11*
X010210Y021504D02*
X010210Y000504D01*
X028710Y000504D01*
X028710Y001504D01*
X029710Y002504D01*
X029710Y015504D01*
X028710Y016504D01*
X028710Y021004D01*
X028210Y021504D01*
X010210Y021504D01*
D12*
X028710Y014504D03*
D13*
X027710Y020504D03*
X026710Y020504D03*
X025710Y020504D03*
X024710Y020504D03*
X023710Y020504D03*
X022710Y020504D03*
X021710Y020504D03*
X020710Y020504D03*
X019110Y020504D03*
X018110Y020504D03*
X017110Y020504D03*
X016110Y020504D03*
X015110Y020504D03*
X014110Y020504D03*
X013110Y020504D03*
X012110Y020504D03*
X015710Y001504D03*
X016710Y001504D03*
X017710Y001504D03*
X018710Y001504D03*
X019710Y001504D03*
X020710Y001504D03*
X022710Y001504D03*
X023710Y001504D03*
X024710Y001504D03*
X025710Y001504D03*
X026710Y001504D03*
X027710Y001504D03*
D14*
X018470Y005004D02*
X017950Y005004D01*
X017950Y006004D02*
X018470Y006004D01*
X018470Y007004D02*
X017950Y007004D01*
X017950Y008004D02*
X018470Y008004D01*
X018470Y009004D02*
X017950Y009004D01*
X017950Y010004D02*
X018470Y010004D01*
X018470Y011004D02*
X017950Y011004D01*
X017950Y012004D02*
X018470Y012004D01*
X015470Y012004D02*
X014950Y012004D01*
X014950Y011004D02*
X015470Y011004D01*
X015470Y010004D02*
X014950Y010004D01*
X014950Y009004D02*
X015470Y009004D01*
X015470Y008004D02*
X014950Y008004D01*
X014950Y007004D02*
X015470Y007004D01*
X015470Y006004D02*
X014950Y006004D01*
X014950Y005004D02*
X015470Y005004D01*
X015210Y014744D02*
X015210Y015264D01*
X014210Y015264D02*
X014210Y014744D01*
X016210Y014744D02*
X016210Y015264D01*
X017210Y015264D02*
X017210Y014744D01*
X018210Y014744D02*
X018210Y015264D01*
X019210Y015264D02*
X019210Y014744D01*
X020210Y014744D02*
X020210Y015264D01*
X021210Y015264D02*
X021210Y014744D01*
X022210Y014744D02*
X022210Y015264D01*
X023210Y015264D02*
X023210Y014744D01*
X023210Y017744D02*
X023210Y018264D01*
X022210Y018264D02*
X022210Y017744D01*
X021210Y017744D02*
X021210Y018264D01*
X020210Y018264D02*
X020210Y017744D01*
X019210Y017744D02*
X019210Y018264D01*
X018210Y018264D02*
X018210Y017744D01*
X017210Y017744D02*
X017210Y018264D01*
X016210Y018264D02*
X016210Y017744D01*
X015210Y017744D02*
X015210Y018264D01*
X014210Y018264D02*
X014210Y017744D01*
D15*
X019710Y013504D03*
X020710Y013504D03*
X021710Y013504D03*
X022710Y013504D03*
X022710Y009504D03*
X021710Y009504D03*
X020710Y009504D03*
X019710Y009504D03*
X019710Y007504D03*
X020710Y007504D03*
X021710Y007504D03*
X022710Y007504D03*
X022710Y003504D03*
X021710Y003504D03*
X020710Y003504D03*
X019710Y003504D03*
D16*
X012710Y015504D03*
D17*
X011710Y015504D03*
X011710Y016504D03*
X012710Y016504D03*
X012710Y017504D03*
X011710Y017504D03*
D18*
X013210Y018504D03*
X013210Y019504D03*
X023710Y011254D03*
X023710Y010254D03*
X023710Y009504D03*
X023710Y008504D03*
X023710Y007254D03*
X023710Y006254D03*
X023710Y005254D03*
X023710Y004254D03*
X012710Y008004D03*
X011710Y008004D03*
X011710Y006004D03*
D19*
X012710Y006004D03*
D20*
X012460Y010004D03*
X011460Y010004D03*
X011460Y014004D03*
X012460Y014004D03*
D21*
X026210Y013504D03*
X026210Y016504D03*
X026210Y009004D03*
X026210Y006004D03*
X011210Y002004D03*
D22*
X012588Y002004D03*
X026210Y007382D03*
X026210Y010382D03*
X026210Y014882D03*
X026210Y017882D03*
M02*
