%
M48
M72
T01C0.0236
T02C0.0276
T03C0.0320
T04C0.0354
T05C0.0394
T06C0.0400
T07C0.0440
T08C0.0472
T09C0.1260
%
T01
X16210Y11504
X16710Y13504
X18710Y15504
X18710Y16504
X16710Y17004
X14210Y17004
X24210Y19004
T02
X23710Y11254
X23710Y10254
X23710Y9504
X23710Y8504
X23710Y7254
X23710Y6254
X23710Y5254
X23710Y4254
X12710Y6004
X11710Y6004
X11710Y8004
X12710Y8004
X13210Y18504
X13210Y19504
T03
X14210Y18004
X15210Y18004
X16210Y18004
X17210Y18004
X18210Y18004
X19210Y18004
X20210Y18004
X21210Y18004
X22210Y18004
X23210Y18004
X23210Y15004
X22210Y15004
X21210Y15004
X20210Y15004
X19210Y15004
X18210Y15004
X17210Y15004
X16210Y15004
X15210Y15004
X14210Y15004
X15210Y12004
X15210Y11004
X15210Y10004
X15210Y9004
X15210Y8004
X15210Y7004
X15210Y6004
X15210Y5004
X18210Y5004
X18210Y6004
X18210Y7004
X18210Y8004
X18210Y9004
X18210Y10004
X18210Y11004
X18210Y12004
T04
X12460Y14004
X11460Y14004
X11460Y10004
X12460Y10004
T05
X15710Y1504
X16710Y1504
X17710Y1504
X18710Y1504
X19710Y1504
X20710Y1504
X22710Y1504
X23710Y1504
X24710Y1504
X25710Y1504
X26710Y1504
X27710Y1504
X27710Y20504
X26710Y20504
X25710Y20504
X24710Y20504
X23710Y20504
X22710Y20504
X21710Y20504
X20710Y20504
X19110Y20504
X18110Y20504
X17110Y20504
X16110Y20504
X15110Y20504
X14110Y20504
X13110Y20504
X12110Y20504
T06
X11710Y17504
X12710Y17504
X12710Y16504
X11710Y16504
X11710Y15504
X12710Y15504
T07
X19710Y13504
X20710Y13504
X21710Y13504
X22710Y13504
X22710Y9504
X21710Y9504
X20710Y9504
X19710Y9504
X19710Y7504
X20710Y7504
X21710Y7504
X22710Y7504
X22710Y3504
X21710Y3504
X20710Y3504
X19710Y3504
T08
X11210Y2004
X12588Y2004
X26210Y6004
X26210Y7382
X26210Y9004
X26210Y10382
X26210Y13504
X26210Y14882
X26210Y16504
X26210Y17882
T09
X28710Y14504
M30
