G75*
G70*
%OFA0B0*%
%FSLAX24Y24*%
%IPPOS*%
%LPD*%
%AMOC8*
5,1,8,0,0,1.08239X$1,22.5*
%
%ADD10C,0.0000*%
%ADD11C,0.0160*%
%ADD12OC8,0.0660*%
%ADD13C,0.0520*%
%ADD14C,0.0705*%
%ADD15C,0.0660*%
%ADD16R,0.0740X0.0740*%
%ADD17OC8,0.0740*%
%ADD18C,0.0650*%
%ADD19R,0.0650X0.0650*%
%ADD20C,0.0740*%
%ADD21C,0.0320*%
%ADD22C,0.0400*%
%ADD23C,0.0356*%
%ADD24R,0.0356X0.0356*%
%ADD25C,0.0120*%
D10*
X010210Y000504D02*
X010210Y021500D01*
X028080Y014504D02*
X028082Y014554D01*
X028088Y014604D01*
X028098Y014653D01*
X028112Y014701D01*
X028129Y014748D01*
X028150Y014793D01*
X028175Y014837D01*
X028203Y014878D01*
X028235Y014917D01*
X028269Y014954D01*
X028306Y014988D01*
X028346Y015018D01*
X028388Y015045D01*
X028432Y015069D01*
X028478Y015090D01*
X028525Y015106D01*
X028573Y015119D01*
X028623Y015128D01*
X028672Y015133D01*
X028723Y015134D01*
X028773Y015131D01*
X028822Y015124D01*
X028871Y015113D01*
X028919Y015098D01*
X028965Y015080D01*
X029010Y015058D01*
X029053Y015032D01*
X029094Y015003D01*
X029133Y014971D01*
X029169Y014936D01*
X029201Y014898D01*
X029231Y014858D01*
X029258Y014815D01*
X029281Y014771D01*
X029300Y014725D01*
X029316Y014677D01*
X029328Y014628D01*
X029336Y014579D01*
X029340Y014529D01*
X029340Y014479D01*
X029336Y014429D01*
X029328Y014380D01*
X029316Y014331D01*
X029300Y014283D01*
X029281Y014237D01*
X029258Y014193D01*
X029231Y014150D01*
X029201Y014110D01*
X029169Y014072D01*
X029133Y014037D01*
X029094Y014005D01*
X029053Y013976D01*
X029010Y013950D01*
X028965Y013928D01*
X028919Y013910D01*
X028871Y013895D01*
X028822Y013884D01*
X028773Y013877D01*
X028723Y013874D01*
X028672Y013875D01*
X028623Y013880D01*
X028573Y013889D01*
X028525Y013902D01*
X028478Y013918D01*
X028432Y013939D01*
X028388Y013963D01*
X028346Y013990D01*
X028306Y014020D01*
X028269Y014054D01*
X028235Y014091D01*
X028203Y014130D01*
X028175Y014171D01*
X028150Y014215D01*
X028129Y014260D01*
X028112Y014307D01*
X028098Y014355D01*
X028088Y014404D01*
X028082Y014454D01*
X028080Y014504D01*
D11*
X010210Y021504D02*
X010210Y000504D01*
X028710Y000504D01*
X028710Y001504D01*
X029710Y002504D01*
X029710Y015504D01*
X028710Y016504D01*
X028710Y021004D01*
X028210Y021504D01*
X010210Y021504D01*
X011210Y018504D02*
X010710Y018004D01*
X010710Y015504D01*
X011710Y015504D01*
X012210Y016004D02*
X011710Y016504D01*
X012710Y017504D02*
X013210Y017504D01*
X013710Y017004D01*
X013710Y015504D01*
X014210Y015004D01*
X015710Y015504D02*
X016210Y015004D01*
X015710Y015504D02*
X015710Y019004D01*
X016210Y019504D01*
X023710Y019504D01*
X024710Y020504D01*
X025710Y020504D02*
X025710Y019004D01*
X024210Y019004D01*
X023710Y019004D02*
X017210Y019004D01*
X016210Y018004D01*
X017210Y018004D02*
X018210Y017004D01*
X019210Y017004D01*
X019210Y016004D01*
X018710Y015504D01*
X019210Y015004D02*
X018460Y014254D01*
X018460Y013254D01*
X017960Y012754D01*
X014460Y012754D01*
X014210Y012504D01*
X014210Y006504D01*
X014710Y006004D01*
X015210Y006004D01*
X014710Y006504D02*
X015710Y006504D01*
X016210Y006004D01*
X018210Y006004D01*
X017710Y005504D02*
X014710Y005504D01*
X013960Y006254D01*
X013960Y012754D01*
X014210Y013004D01*
X017210Y013004D01*
X017710Y013504D01*
X017710Y015504D01*
X018710Y016504D01*
X019210Y017004D02*
X021210Y017004D01*
X022710Y015504D01*
X022710Y014504D01*
X023710Y013504D01*
X023710Y013004D01*
X025210Y011504D01*
X026710Y011504D01*
X028210Y010004D01*
X028210Y003504D01*
X026710Y002004D01*
X026710Y001504D01*
X018210Y005004D02*
X017710Y005504D01*
X015210Y004004D02*
X012210Y004004D01*
X011726Y004488D01*
X010710Y005504D01*
X010710Y010004D01*
X010710Y015504D01*
X012210Y015004D02*
X012460Y014754D01*
X012460Y014004D01*
X014460Y012254D02*
X014460Y006754D01*
X014710Y006504D01*
X011726Y004488D02*
X011726Y002504D01*
X015210Y004004D02*
X017710Y001504D01*
X012460Y010004D02*
X011460Y010004D01*
X010710Y010004D01*
X014460Y012254D02*
X014710Y012504D01*
X018210Y012504D01*
X018710Y013004D01*
X018710Y014004D01*
X018960Y014254D01*
X019460Y014254D01*
X019710Y014504D01*
X019710Y015504D01*
X019960Y015754D01*
X020710Y015754D01*
X021210Y015254D01*
X021210Y015004D01*
X020210Y015004D02*
X020210Y014004D01*
X019210Y014004D01*
X019210Y012004D01*
X018710Y011504D01*
X017710Y011504D01*
X017210Y011004D01*
X015210Y011004D01*
X016210Y011504D02*
X016710Y011504D01*
X017210Y012004D01*
X018210Y012004D01*
X016710Y013504D02*
X016710Y017004D01*
X015210Y017004D02*
X015210Y018004D01*
X014210Y018004D02*
X013710Y018504D01*
X013210Y018504D01*
X011210Y018504D01*
X014210Y017004D02*
X015210Y017004D01*
X020210Y018004D02*
X020960Y018754D01*
X023460Y018754D01*
X026194Y016020D01*
X026210Y016020D01*
X025210Y016504D02*
X024710Y017004D01*
X023210Y017004D01*
X022210Y018004D01*
X021210Y018004D02*
X022710Y016504D01*
X024210Y016504D01*
X024710Y016004D01*
X024710Y014004D01*
X026210Y012504D01*
X026210Y012020D01*
X026210Y013988D02*
X026210Y014504D01*
X025210Y015504D01*
X025210Y016504D01*
X024726Y017988D02*
X023710Y019004D01*
X024726Y017988D02*
X026210Y017988D01*
D12*
X026710Y020504D03*
X027710Y020504D03*
X025710Y020504D03*
X024710Y020504D03*
X023710Y020504D03*
X022710Y020504D03*
X021710Y020504D03*
X020710Y020504D03*
X019110Y020504D03*
X018110Y020504D03*
X017110Y020504D03*
X016110Y020504D03*
X015110Y020504D03*
X014110Y020504D03*
X013110Y020504D03*
X012110Y020504D03*
X015710Y001504D03*
X016710Y001504D03*
X017710Y001504D03*
X018710Y001504D03*
X019710Y001504D03*
X020710Y001504D03*
X022710Y001504D03*
X023710Y001504D03*
X024710Y001504D03*
X025710Y001504D03*
X026710Y001504D03*
X027710Y001504D03*
D13*
X018470Y005004D02*
X017950Y005004D01*
X017950Y006004D02*
X018470Y006004D01*
X018470Y007004D02*
X017950Y007004D01*
X017950Y008004D02*
X018470Y008004D01*
X018470Y009004D02*
X017950Y009004D01*
X017950Y010004D02*
X018470Y010004D01*
X018470Y011004D02*
X017950Y011004D01*
X017950Y012004D02*
X018470Y012004D01*
X015470Y012004D02*
X014950Y012004D01*
X014950Y011004D02*
X015470Y011004D01*
X015470Y010004D02*
X014950Y010004D01*
X014950Y009004D02*
X015470Y009004D01*
X015470Y008004D02*
X014950Y008004D01*
X014950Y007004D02*
X015470Y007004D01*
X015470Y006004D02*
X014950Y006004D01*
X014950Y005004D02*
X015470Y005004D01*
X015210Y014744D02*
X015210Y015264D01*
X014210Y015264D02*
X014210Y014744D01*
X016210Y014744D02*
X016210Y015264D01*
X017210Y015264D02*
X017210Y014744D01*
X018210Y014744D02*
X018210Y015264D01*
X019210Y015264D02*
X019210Y014744D01*
X020210Y014744D02*
X020210Y015264D01*
X021210Y015264D02*
X021210Y014744D01*
X022210Y014744D02*
X022210Y015264D01*
X023210Y015264D02*
X023210Y014744D01*
X023210Y017744D02*
X023210Y018264D01*
X022210Y018264D02*
X022210Y017744D01*
X021210Y017744D02*
X021210Y018264D01*
X020210Y018264D02*
X020210Y017744D01*
X019210Y017744D02*
X019210Y018264D01*
X018210Y018264D02*
X018210Y017744D01*
X017210Y017744D02*
X017210Y018264D01*
X016210Y018264D02*
X016210Y017744D01*
X015210Y017744D02*
X015210Y018264D01*
X014210Y018264D02*
X014210Y017744D01*
D14*
X025857Y017988D02*
X026562Y017988D01*
X026562Y016020D02*
X025857Y016020D01*
X025857Y013988D02*
X026562Y013988D01*
X026562Y012020D02*
X025857Y012020D01*
X025857Y009988D02*
X026562Y009988D01*
X026562Y008020D02*
X025857Y008020D01*
X025857Y005988D02*
X026562Y005988D01*
X026562Y004020D02*
X025857Y004020D01*
X013694Y002856D02*
X013694Y002151D01*
X011726Y002151D02*
X011726Y002856D01*
D15*
X019710Y003504D03*
X020710Y003504D03*
X021710Y003504D03*
X022710Y003504D03*
X022710Y007504D03*
X021710Y007504D03*
X020710Y007504D03*
X019710Y007504D03*
X019710Y009504D03*
X020710Y009504D03*
X021710Y009504D03*
X022710Y009504D03*
X022710Y013504D03*
X021710Y013504D03*
X020710Y013504D03*
X019710Y013504D03*
D16*
X012710Y015504D03*
D17*
X011710Y015504D03*
X011710Y016504D03*
X012710Y016504D03*
X012710Y017504D03*
X011710Y017504D03*
D18*
X013210Y018504D03*
X013210Y019504D03*
X023710Y011254D03*
X023710Y010254D03*
X023710Y009504D03*
X023710Y008504D03*
X023710Y006254D03*
X023710Y005254D03*
X023710Y004254D03*
X023710Y003254D03*
X012710Y008004D03*
X011710Y008004D03*
X011710Y006004D03*
D19*
X012710Y006004D03*
D20*
X012460Y010004D03*
X011460Y010004D03*
X011460Y014004D03*
X012460Y014004D03*
D21*
X017710Y010504D02*
X020710Y010504D01*
X020710Y006504D02*
X017710Y006504D01*
X020710Y003504D02*
X020710Y002504D01*
X022710Y002504D01*
X022710Y003504D01*
X022710Y002504D02*
X026710Y002504D01*
X027710Y003504D01*
X027710Y010004D01*
X026710Y011004D01*
X020710Y002504D02*
X020710Y001504D01*
D22*
X017210Y005004D01*
X015210Y005004D01*
X014210Y005004D01*
X013210Y006004D01*
X012710Y006004D01*
X012710Y008004D01*
X015210Y007004D02*
X017210Y007004D01*
X017710Y006504D01*
X020710Y006504D02*
X021710Y007504D01*
X022710Y007504D01*
X023710Y008504D01*
X025726Y008504D01*
X026210Y008020D01*
X026210Y009988D02*
X025944Y010254D01*
X023710Y010254D01*
X023460Y010254D01*
X022710Y009504D01*
X021710Y009504D01*
X020710Y010504D01*
X020710Y012504D02*
X022710Y012504D01*
X022710Y013504D01*
X022710Y012504D02*
X023710Y012504D01*
X025210Y011004D01*
X026710Y011004D01*
X020710Y012504D02*
X020710Y013504D01*
X017710Y010504D02*
X017210Y010004D01*
X015210Y010004D01*
D23*
X016210Y011504D03*
X016710Y013504D03*
X018710Y015504D03*
X016710Y017004D03*
X014210Y017004D03*
X024210Y019004D03*
D24*
X018710Y016504D03*
D25*
X012210Y016004D02*
X012210Y015004D01*
M02*
