G75*
G70*
%OFA0B0*%
%FSLAX24Y24*%
%IPPOS*%
%LPD*%
%AMOC8*
5,1,8,0,0,1.08239X$1,22.5*
%
%ADD10C,0.0000*%
%ADD11C,0.0160*%
%ADD12C,0.0030*%
%ADD13C,0.0060*%
%ADD14C,0.0050*%
%ADD15C,0.0070*%
%ADD16R,0.1000X0.0200*%
%ADD17R,0.0300X0.0750*%
%ADD18C,0.0080*%
%ADD19C,0.0010*%
D10*
X010210Y000504D02*
X010210Y021500D01*
X028080Y014504D02*
X028082Y014554D01*
X028088Y014604D01*
X028098Y014653D01*
X028112Y014701D01*
X028129Y014748D01*
X028150Y014793D01*
X028175Y014837D01*
X028203Y014878D01*
X028235Y014917D01*
X028269Y014954D01*
X028306Y014988D01*
X028346Y015018D01*
X028388Y015045D01*
X028432Y015069D01*
X028478Y015090D01*
X028525Y015106D01*
X028573Y015119D01*
X028623Y015128D01*
X028672Y015133D01*
X028723Y015134D01*
X028773Y015131D01*
X028822Y015124D01*
X028871Y015113D01*
X028919Y015098D01*
X028965Y015080D01*
X029010Y015058D01*
X029053Y015032D01*
X029094Y015003D01*
X029133Y014971D01*
X029169Y014936D01*
X029201Y014898D01*
X029231Y014858D01*
X029258Y014815D01*
X029281Y014771D01*
X029300Y014725D01*
X029316Y014677D01*
X029328Y014628D01*
X029336Y014579D01*
X029340Y014529D01*
X029340Y014479D01*
X029336Y014429D01*
X029328Y014380D01*
X029316Y014331D01*
X029300Y014283D01*
X029281Y014237D01*
X029258Y014193D01*
X029231Y014150D01*
X029201Y014110D01*
X029169Y014072D01*
X029133Y014037D01*
X029094Y014005D01*
X029053Y013976D01*
X029010Y013950D01*
X028965Y013928D01*
X028919Y013910D01*
X028871Y013895D01*
X028822Y013884D01*
X028773Y013877D01*
X028723Y013874D01*
X028672Y013875D01*
X028623Y013880D01*
X028573Y013889D01*
X028525Y013902D01*
X028478Y013918D01*
X028432Y013939D01*
X028388Y013963D01*
X028346Y013990D01*
X028306Y014020D01*
X028269Y014054D01*
X028235Y014091D01*
X028203Y014130D01*
X028175Y014171D01*
X028150Y014215D01*
X028129Y014260D01*
X028112Y014307D01*
X028098Y014355D01*
X028088Y014404D01*
X028082Y014454D01*
X028080Y014504D01*
D11*
X010210Y021504D02*
X010210Y000504D01*
X028710Y000504D01*
X028710Y001504D01*
X029710Y002504D01*
X029710Y015504D01*
X028710Y016504D01*
X028710Y021004D01*
X028210Y021504D01*
X010210Y021504D01*
D12*
X011248Y019989D02*
X011371Y019866D01*
X011371Y019619D01*
X011493Y019619D02*
X011493Y019989D01*
X011678Y019989D01*
X011739Y019928D01*
X011739Y019804D01*
X011678Y019742D01*
X011493Y019742D01*
X011616Y019742D02*
X011739Y019619D01*
X011861Y019681D02*
X011861Y019804D01*
X011923Y019866D01*
X012046Y019866D01*
X012108Y019804D01*
X012108Y019742D01*
X011861Y019742D01*
X011861Y019681D02*
X011923Y019619D01*
X012046Y019619D01*
X012291Y019619D02*
X012291Y019928D01*
X012353Y019989D01*
X012353Y019804D02*
X012229Y019804D01*
X012620Y019804D02*
X012620Y019681D01*
X012682Y019619D01*
X012867Y019619D01*
X012867Y019557D02*
X012867Y019866D01*
X012682Y019866D01*
X012620Y019804D01*
X012867Y019557D02*
X012805Y019496D01*
X012743Y019496D01*
X012988Y019619D02*
X012988Y019866D01*
X013173Y019866D01*
X013235Y019804D01*
X013235Y019619D01*
X013356Y019681D02*
X013356Y019804D01*
X013418Y019866D01*
X013603Y019866D01*
X013603Y019989D02*
X013603Y019619D01*
X013418Y019619D01*
X013356Y019681D01*
X013838Y019619D02*
X014085Y019619D01*
X013962Y019619D02*
X013962Y019989D01*
X013838Y019866D01*
X014206Y019928D02*
X014268Y019989D01*
X014392Y019989D01*
X014453Y019928D01*
X014453Y019866D01*
X014392Y019804D01*
X014453Y019742D01*
X014453Y019681D01*
X014392Y019619D01*
X014268Y019619D01*
X014206Y019681D01*
X014330Y019804D02*
X014392Y019804D01*
X014838Y019866D02*
X014962Y019989D01*
X014962Y019619D01*
X015085Y019619D02*
X014838Y019619D01*
X015206Y019619D02*
X015453Y019866D01*
X015453Y019928D01*
X015392Y019989D01*
X015268Y019989D01*
X015206Y019928D01*
X015206Y019619D02*
X015453Y019619D01*
X015838Y019619D02*
X016085Y019619D01*
X016206Y019619D02*
X016453Y019619D01*
X016330Y019619D02*
X016330Y019989D01*
X016206Y019866D01*
X015962Y019989D02*
X015962Y019619D01*
X015838Y019866D02*
X015962Y019989D01*
X016838Y019866D02*
X016962Y019989D01*
X016962Y019619D01*
X017085Y019619D02*
X016838Y019619D01*
X017206Y019681D02*
X017206Y019928D01*
X017268Y019989D01*
X017392Y019989D01*
X017453Y019928D01*
X017206Y019681D01*
X017268Y019619D01*
X017392Y019619D01*
X017453Y019681D01*
X017453Y019928D01*
X018006Y019928D02*
X018006Y019866D01*
X018068Y019804D01*
X018253Y019804D01*
X018253Y019681D02*
X018253Y019928D01*
X018192Y019989D01*
X018068Y019989D01*
X018006Y019928D01*
X018006Y019681D02*
X018068Y019619D01*
X018192Y019619D01*
X018253Y019681D01*
X019006Y019681D02*
X019006Y019742D01*
X019068Y019804D01*
X019192Y019804D01*
X019253Y019742D01*
X019253Y019681D01*
X019192Y019619D01*
X019068Y019619D01*
X019006Y019681D01*
X019068Y019804D02*
X019006Y019866D01*
X019006Y019928D01*
X019068Y019989D01*
X019192Y019989D01*
X019253Y019928D01*
X019253Y019866D01*
X019192Y019804D01*
X020606Y019681D02*
X020606Y019619D01*
X020606Y019681D02*
X020853Y019928D01*
X020853Y019989D01*
X020606Y019989D01*
X021606Y019804D02*
X021606Y019681D01*
X021668Y019619D01*
X021792Y019619D01*
X021853Y019681D01*
X021853Y019742D01*
X021792Y019804D01*
X021606Y019804D01*
X021730Y019928D01*
X021853Y019989D01*
X022606Y019989D02*
X022606Y019804D01*
X022730Y019866D01*
X022792Y019866D01*
X022853Y019804D01*
X022853Y019681D01*
X022792Y019619D01*
X022668Y019619D01*
X022606Y019681D01*
X022606Y019989D02*
X022853Y019989D01*
X023606Y019804D02*
X023853Y019804D01*
X023792Y019619D02*
X023792Y019989D01*
X023606Y019804D01*
X024606Y019681D02*
X024668Y019619D01*
X024792Y019619D01*
X024853Y019681D01*
X024853Y019742D01*
X024792Y019804D01*
X024730Y019804D01*
X024792Y019804D02*
X024853Y019866D01*
X024853Y019928D01*
X024792Y019989D01*
X024668Y019989D01*
X024606Y019928D01*
X025606Y019928D02*
X025668Y019989D01*
X025792Y019989D01*
X025853Y019928D01*
X025853Y019866D01*
X025606Y019619D01*
X025853Y019619D01*
X026606Y019619D02*
X026853Y019619D01*
X026730Y019619D02*
X026730Y019989D01*
X026606Y019866D01*
X027606Y019928D02*
X027606Y019681D01*
X027853Y019928D01*
X027853Y019681D01*
X027792Y019619D01*
X027668Y019619D01*
X027606Y019681D01*
X027606Y019928D02*
X027668Y019989D01*
X027792Y019989D01*
X027853Y019928D01*
X026091Y021081D02*
X026091Y021328D01*
X026029Y021389D01*
X025906Y021389D01*
X025844Y021328D01*
X025844Y021081D01*
X025906Y021019D01*
X026029Y021019D01*
X026091Y021081D01*
X025722Y021389D02*
X025476Y021019D01*
X025353Y021019D02*
X025230Y021019D01*
X025292Y021019D02*
X025292Y021389D01*
X025353Y021389D02*
X025230Y021389D01*
X024678Y021389D02*
X024678Y021019D01*
X024616Y021019D02*
X024740Y021019D01*
X024495Y021019D02*
X024495Y021204D01*
X024433Y021266D01*
X024310Y021266D01*
X024310Y021142D02*
X024495Y021142D01*
X024495Y021019D02*
X024310Y021019D01*
X024248Y021081D01*
X024310Y021142D01*
X024126Y021019D02*
X024064Y021081D01*
X024064Y021328D01*
X024002Y021266D02*
X024126Y021266D01*
X023819Y021266D02*
X023819Y021019D01*
X023880Y021019D02*
X023757Y021019D01*
X023635Y021019D02*
X023450Y021019D01*
X023389Y021081D01*
X023389Y021204D01*
X023450Y021266D01*
X023635Y021266D01*
X023635Y020957D01*
X023574Y020896D01*
X023512Y020896D01*
X023266Y021019D02*
X023143Y021019D01*
X023205Y021019D02*
X023205Y021266D01*
X023143Y021266D01*
X023022Y021328D02*
X023022Y021081D01*
X022960Y021019D01*
X022775Y021019D01*
X022775Y021389D01*
X022960Y021389D01*
X023022Y021328D01*
X023205Y021389D02*
X023205Y021451D01*
X023757Y021266D02*
X023819Y021266D01*
X023819Y021389D02*
X023819Y021451D01*
X024616Y021389D02*
X024678Y021389D01*
X018491Y021328D02*
X018491Y021081D01*
X018429Y021019D01*
X018306Y021019D01*
X018244Y021081D01*
X018244Y021328D01*
X018306Y021389D01*
X018429Y021389D01*
X018491Y021328D01*
X018122Y021389D02*
X017876Y021019D01*
X017753Y021019D02*
X017630Y021019D01*
X017692Y021019D02*
X017692Y021389D01*
X017753Y021389D02*
X017630Y021389D01*
X017078Y021389D02*
X017078Y021019D01*
X017016Y021019D02*
X017140Y021019D01*
X016895Y021019D02*
X016895Y021204D01*
X016833Y021266D01*
X016710Y021266D01*
X016710Y021142D02*
X016895Y021142D01*
X016895Y021019D02*
X016710Y021019D01*
X016648Y021081D01*
X016710Y021142D01*
X016526Y021019D02*
X016464Y021081D01*
X016464Y021328D01*
X016402Y021266D02*
X016526Y021266D01*
X016219Y021266D02*
X016219Y021019D01*
X016280Y021019D02*
X016157Y021019D01*
X016035Y021019D02*
X015850Y021019D01*
X015789Y021081D01*
X015789Y021204D01*
X015850Y021266D01*
X016035Y021266D01*
X016035Y020957D01*
X015974Y020896D01*
X015912Y020896D01*
X015666Y021019D02*
X015543Y021019D01*
X015605Y021019D02*
X015605Y021266D01*
X015543Y021266D01*
X015422Y021328D02*
X015360Y021389D01*
X015175Y021389D01*
X015175Y021019D01*
X015360Y021019D01*
X015422Y021081D01*
X015422Y021328D01*
X015605Y021389D02*
X015605Y021451D01*
X016157Y021266D02*
X016219Y021266D01*
X016219Y021389D02*
X016219Y021451D01*
X017016Y021389D02*
X017078Y021389D01*
X011371Y019804D02*
X011124Y019804D01*
X011124Y019866D02*
X011248Y019989D01*
X011124Y019866D02*
X011124Y019619D01*
X015021Y002389D02*
X015206Y002389D01*
X015268Y002328D01*
X015268Y002204D01*
X015206Y002142D01*
X015021Y002142D01*
X015021Y002019D02*
X015021Y002389D01*
X015389Y002328D02*
X015389Y002266D01*
X015451Y002204D01*
X015574Y002204D01*
X015636Y002142D01*
X015636Y002081D01*
X015574Y002019D01*
X015451Y002019D01*
X015389Y002081D01*
X015268Y002019D02*
X015144Y002142D01*
X015389Y002328D02*
X015451Y002389D01*
X015574Y002389D01*
X015636Y002328D01*
X015757Y002389D02*
X016004Y002389D01*
X015881Y002389D02*
X015881Y002019D01*
X016407Y002081D02*
X016468Y002019D01*
X016592Y002019D01*
X016654Y002081D01*
X016654Y002142D01*
X016592Y002204D01*
X016530Y002204D01*
X016592Y002204D02*
X016654Y002266D01*
X016654Y002328D01*
X016592Y002389D01*
X016468Y002389D01*
X016407Y002328D01*
X016775Y002266D02*
X016899Y002019D01*
X017022Y002266D01*
X017507Y002204D02*
X017630Y002266D01*
X017692Y002266D01*
X017754Y002204D01*
X017754Y002081D01*
X017692Y002019D01*
X017568Y002019D01*
X017507Y002081D01*
X017507Y002204D02*
X017507Y002389D01*
X017754Y002389D01*
X017875Y002266D02*
X017999Y002019D01*
X018122Y002266D01*
X018779Y002328D02*
X018779Y002081D01*
X018840Y002019D01*
X018964Y002019D01*
X019026Y002081D01*
X019026Y002204D01*
X018902Y002204D01*
X018779Y002328D02*
X018840Y002389D01*
X018964Y002389D01*
X019026Y002328D01*
X019147Y002266D02*
X019332Y002266D01*
X019394Y002204D01*
X019394Y002019D01*
X019515Y002081D02*
X019515Y002204D01*
X019577Y002266D01*
X019762Y002266D01*
X019762Y002389D02*
X019762Y002019D01*
X019577Y002019D01*
X019515Y002081D01*
X019147Y002019D02*
X019147Y002266D01*
X020357Y002389D02*
X020357Y002142D01*
X020480Y002019D01*
X020604Y002142D01*
X020604Y002389D01*
X020725Y002266D02*
X020787Y002266D01*
X020787Y002019D01*
X020725Y002019D02*
X020849Y002019D01*
X020971Y002019D02*
X020971Y002266D01*
X021156Y002266D01*
X021217Y002204D01*
X021217Y002019D01*
X020787Y002389D02*
X020787Y002451D01*
X022575Y002328D02*
X022575Y002081D01*
X022822Y002328D01*
X022822Y002081D01*
X022760Y002019D01*
X022636Y002019D01*
X022575Y002081D01*
X022575Y002328D02*
X022636Y002389D01*
X022760Y002389D01*
X022822Y002328D01*
X023575Y002266D02*
X023698Y002389D01*
X023698Y002019D01*
X023575Y002019D02*
X023822Y002019D01*
X024575Y002019D02*
X024822Y002266D01*
X024822Y002328D01*
X024760Y002389D01*
X024636Y002389D01*
X024575Y002328D01*
X024575Y002019D02*
X024822Y002019D01*
X025575Y002081D02*
X025636Y002019D01*
X025760Y002019D01*
X025822Y002081D01*
X025822Y002142D01*
X025760Y002204D01*
X025698Y002204D01*
X025760Y002204D02*
X025822Y002266D01*
X025822Y002328D01*
X025760Y002389D01*
X025636Y002389D01*
X025575Y002328D01*
X026575Y002204D02*
X026822Y002204D01*
X026760Y002019D02*
X026760Y002389D01*
X026575Y002204D01*
X027575Y002204D02*
X027698Y002266D01*
X027760Y002266D01*
X027822Y002204D01*
X027822Y002081D01*
X027760Y002019D01*
X027636Y002019D01*
X027575Y002081D01*
X027575Y002204D02*
X027575Y002389D01*
X027822Y002389D01*
X026915Y000948D02*
X026976Y000886D01*
X026976Y000701D01*
X026730Y000701D02*
X026730Y000948D01*
X026915Y000948D01*
X026608Y001071D02*
X026484Y001071D01*
X026546Y001071D02*
X026546Y000701D01*
X026484Y000701D02*
X026608Y000701D01*
X025994Y000701D02*
X025809Y000701D01*
X025747Y000763D01*
X025747Y000886D01*
X025809Y000948D01*
X025994Y000948D01*
X025994Y000639D01*
X025933Y000578D01*
X025871Y000578D01*
X025626Y000763D02*
X025626Y000886D01*
X025564Y000948D01*
X025441Y000948D01*
X025379Y000886D01*
X025379Y000763D01*
X025441Y000701D01*
X025564Y000701D01*
X025626Y000763D01*
X025257Y000701D02*
X025134Y000701D01*
X025195Y000701D02*
X025195Y001071D01*
X025134Y001071D01*
X024951Y000948D02*
X025012Y000886D01*
X025012Y000701D01*
X024827Y000701D01*
X024765Y000763D01*
X024827Y000824D01*
X025012Y000824D01*
X024951Y000948D02*
X024827Y000948D01*
X024644Y000886D02*
X024644Y000701D01*
X024644Y000886D02*
X024582Y000948D01*
X024397Y000948D01*
X024397Y000701D01*
X024276Y000701D02*
X024276Y000948D01*
X024152Y001071D01*
X024029Y000948D01*
X024029Y000701D01*
X024029Y000886D02*
X024276Y000886D01*
D13*
X024320Y003040D02*
X024240Y003040D01*
X024240Y006970D01*
X024320Y006970D01*
X026920Y006970D01*
X027860Y006970D01*
X027860Y003040D01*
X026920Y003040D01*
X024320Y003040D01*
X024320Y006970D01*
X024320Y007040D02*
X024240Y007040D01*
X024240Y010970D01*
X024320Y010970D01*
X026920Y010970D01*
X027860Y010970D01*
X027860Y007040D01*
X026920Y007040D01*
X024320Y007040D01*
X024320Y010970D01*
X024320Y011040D02*
X024240Y011040D01*
X024240Y014970D01*
X024320Y014970D01*
X026920Y014970D01*
X027860Y014970D01*
X027860Y011040D01*
X026920Y011040D01*
X024320Y011040D01*
X024320Y014970D01*
X024320Y015040D02*
X024240Y015040D01*
X024240Y018970D01*
X024320Y018970D01*
X026920Y018970D01*
X027860Y018970D01*
X027860Y015040D01*
X026920Y015040D01*
X024320Y015040D01*
X024320Y018970D01*
X024640Y017990D02*
X024642Y018018D01*
X024648Y018045D01*
X024657Y018071D01*
X024670Y018096D01*
X024687Y018119D01*
X024706Y018139D01*
X024728Y018156D01*
X024752Y018170D01*
X024778Y018180D01*
X024805Y018187D01*
X024833Y018190D01*
X024861Y018189D01*
X024888Y018184D01*
X024915Y018175D01*
X024940Y018163D01*
X024963Y018148D01*
X024984Y018129D01*
X025002Y018108D01*
X025017Y018084D01*
X025028Y018058D01*
X025036Y018032D01*
X025040Y018004D01*
X025040Y017976D01*
X025036Y017948D01*
X025028Y017922D01*
X025017Y017896D01*
X025002Y017872D01*
X024984Y017851D01*
X024963Y017832D01*
X024940Y017817D01*
X024915Y017805D01*
X024888Y017796D01*
X024861Y017791D01*
X024833Y017790D01*
X024805Y017793D01*
X024778Y017800D01*
X024752Y017810D01*
X024728Y017824D01*
X024706Y017841D01*
X024687Y017861D01*
X024670Y017884D01*
X024657Y017909D01*
X024648Y017935D01*
X024642Y017962D01*
X024640Y017990D01*
X023910Y017604D02*
X013510Y017604D01*
X013510Y016754D01*
X013540Y016752D01*
X013570Y016747D01*
X013599Y016738D01*
X013626Y016725D01*
X013652Y016710D01*
X013676Y016691D01*
X013697Y016670D01*
X013716Y016646D01*
X013731Y016620D01*
X013744Y016593D01*
X013753Y016564D01*
X013758Y016534D01*
X013760Y016504D01*
X013758Y016474D01*
X013753Y016444D01*
X013744Y016415D01*
X013731Y016388D01*
X013716Y016362D01*
X013697Y016338D01*
X013676Y016317D01*
X013652Y016298D01*
X013626Y016283D01*
X013599Y016270D01*
X013570Y016261D01*
X013540Y016256D01*
X013510Y016254D01*
X013510Y015404D01*
X023910Y015404D01*
X023910Y017604D01*
X024640Y016020D02*
X024642Y016048D01*
X024648Y016075D01*
X024657Y016101D01*
X024670Y016126D01*
X024687Y016149D01*
X024706Y016169D01*
X024728Y016186D01*
X024752Y016200D01*
X024778Y016210D01*
X024805Y016217D01*
X024833Y016220D01*
X024861Y016219D01*
X024888Y016214D01*
X024915Y016205D01*
X024940Y016193D01*
X024963Y016178D01*
X024984Y016159D01*
X025002Y016138D01*
X025017Y016114D01*
X025028Y016088D01*
X025036Y016062D01*
X025040Y016034D01*
X025040Y016006D01*
X025036Y015978D01*
X025028Y015952D01*
X025017Y015926D01*
X025002Y015902D01*
X024984Y015881D01*
X024963Y015862D01*
X024940Y015847D01*
X024915Y015835D01*
X024888Y015826D01*
X024861Y015821D01*
X024833Y015820D01*
X024805Y015823D01*
X024778Y015830D01*
X024752Y015840D01*
X024728Y015854D01*
X024706Y015871D01*
X024687Y015891D01*
X024670Y015914D01*
X024657Y015939D01*
X024648Y015965D01*
X024642Y015992D01*
X024640Y016020D01*
X026920Y016370D02*
X026920Y017640D01*
X026920Y018340D02*
X026920Y018970D01*
X026920Y015670D02*
X026920Y015040D01*
X026920Y014970D02*
X026920Y014340D01*
X026920Y013640D02*
X026920Y012370D01*
X026920Y011670D02*
X026920Y011040D01*
X026920Y010970D02*
X026920Y010340D01*
X026920Y009640D02*
X026920Y008370D01*
X026920Y007670D02*
X026920Y007040D01*
X026920Y006970D02*
X026920Y006340D01*
X026920Y005640D02*
X026920Y004370D01*
X026920Y003670D02*
X026920Y003040D01*
X024640Y004020D02*
X024642Y004048D01*
X024648Y004075D01*
X024657Y004101D01*
X024670Y004126D01*
X024687Y004149D01*
X024706Y004169D01*
X024728Y004186D01*
X024752Y004200D01*
X024778Y004210D01*
X024805Y004217D01*
X024833Y004220D01*
X024861Y004219D01*
X024888Y004214D01*
X024915Y004205D01*
X024940Y004193D01*
X024963Y004178D01*
X024984Y004159D01*
X025002Y004138D01*
X025017Y004114D01*
X025028Y004088D01*
X025036Y004062D01*
X025040Y004034D01*
X025040Y004006D01*
X025036Y003978D01*
X025028Y003952D01*
X025017Y003926D01*
X025002Y003902D01*
X024984Y003881D01*
X024963Y003862D01*
X024940Y003847D01*
X024915Y003835D01*
X024888Y003826D01*
X024861Y003821D01*
X024833Y003820D01*
X024805Y003823D01*
X024778Y003830D01*
X024752Y003840D01*
X024728Y003854D01*
X024706Y003871D01*
X024687Y003891D01*
X024670Y003914D01*
X024657Y003939D01*
X024648Y003965D01*
X024642Y003992D01*
X024640Y004020D01*
X024210Y004704D02*
X023210Y004704D01*
X023210Y006304D01*
X022210Y006304D01*
X022210Y004704D01*
X023210Y004704D01*
X023210Y006304D01*
X024210Y006304D01*
X024210Y004704D01*
X023710Y005254D02*
X023710Y005504D01*
X023960Y005504D01*
X023710Y005504D02*
X023460Y005504D01*
X023710Y005504D02*
X023460Y005904D01*
X023960Y005904D01*
X023710Y005504D01*
X023710Y006104D01*
X022960Y005504D02*
X022710Y005504D01*
X022460Y005504D01*
X022710Y005504D02*
X022960Y005104D01*
X022460Y005104D01*
X022710Y005504D01*
X022710Y004904D01*
X022210Y004704D02*
X021210Y004704D01*
X021210Y006304D01*
X020210Y006304D01*
X020210Y004704D01*
X021210Y004704D01*
X021210Y006304D01*
X022210Y006304D01*
X022210Y004704D01*
X021710Y005254D02*
X021710Y005504D01*
X021960Y005504D01*
X021710Y005504D02*
X021460Y005504D01*
X021710Y005504D02*
X021460Y005904D01*
X021960Y005904D01*
X021710Y005504D01*
X021710Y006104D01*
X020960Y005504D02*
X020710Y005504D01*
X020460Y005504D01*
X020710Y005504D02*
X020710Y005754D01*
X020710Y005504D02*
X020960Y005104D01*
X020460Y005104D01*
X020710Y005504D01*
X020710Y004904D01*
X018860Y004504D02*
X016560Y004504D01*
X016560Y012504D01*
X017310Y012504D01*
X017312Y012465D01*
X017318Y012426D01*
X017327Y012388D01*
X017340Y012351D01*
X017357Y012315D01*
X017377Y012282D01*
X017401Y012250D01*
X017427Y012221D01*
X017456Y012195D01*
X017488Y012171D01*
X017521Y012151D01*
X017557Y012134D01*
X017594Y012121D01*
X017632Y012112D01*
X017671Y012106D01*
X017710Y012104D01*
X017749Y012106D01*
X017788Y012112D01*
X017826Y012121D01*
X017863Y012134D01*
X017899Y012151D01*
X017932Y012171D01*
X017964Y012195D01*
X017993Y012221D01*
X018019Y012250D01*
X018043Y012282D01*
X018063Y012315D01*
X018080Y012351D01*
X018093Y012388D01*
X018102Y012426D01*
X018108Y012465D01*
X018110Y012504D01*
X018860Y012504D01*
X018860Y004504D01*
X022710Y005504D02*
X022710Y005754D01*
X024640Y005990D02*
X024642Y006018D01*
X024648Y006045D01*
X024657Y006071D01*
X024670Y006096D01*
X024687Y006119D01*
X024706Y006139D01*
X024728Y006156D01*
X024752Y006170D01*
X024778Y006180D01*
X024805Y006187D01*
X024833Y006190D01*
X024861Y006189D01*
X024888Y006184D01*
X024915Y006175D01*
X024940Y006163D01*
X024963Y006148D01*
X024984Y006129D01*
X025002Y006108D01*
X025017Y006084D01*
X025028Y006058D01*
X025036Y006032D01*
X025040Y006004D01*
X025040Y005976D01*
X025036Y005948D01*
X025028Y005922D01*
X025017Y005896D01*
X025002Y005872D01*
X024984Y005851D01*
X024963Y005832D01*
X024940Y005817D01*
X024915Y005805D01*
X024888Y005796D01*
X024861Y005791D01*
X024833Y005790D01*
X024805Y005793D01*
X024778Y005800D01*
X024752Y005810D01*
X024728Y005824D01*
X024706Y005841D01*
X024687Y005861D01*
X024670Y005884D01*
X024657Y005909D01*
X024648Y005935D01*
X024642Y005962D01*
X024640Y005990D01*
X024640Y008020D02*
X024642Y008048D01*
X024648Y008075D01*
X024657Y008101D01*
X024670Y008126D01*
X024687Y008149D01*
X024706Y008169D01*
X024728Y008186D01*
X024752Y008200D01*
X024778Y008210D01*
X024805Y008217D01*
X024833Y008220D01*
X024861Y008219D01*
X024888Y008214D01*
X024915Y008205D01*
X024940Y008193D01*
X024963Y008178D01*
X024984Y008159D01*
X025002Y008138D01*
X025017Y008114D01*
X025028Y008088D01*
X025036Y008062D01*
X025040Y008034D01*
X025040Y008006D01*
X025036Y007978D01*
X025028Y007952D01*
X025017Y007926D01*
X025002Y007902D01*
X024984Y007881D01*
X024963Y007862D01*
X024940Y007847D01*
X024915Y007835D01*
X024888Y007826D01*
X024861Y007821D01*
X024833Y007820D01*
X024805Y007823D01*
X024778Y007830D01*
X024752Y007840D01*
X024728Y007854D01*
X024706Y007871D01*
X024687Y007891D01*
X024670Y007914D01*
X024657Y007939D01*
X024648Y007965D01*
X024642Y007992D01*
X024640Y008020D01*
X024640Y009990D02*
X024642Y010018D01*
X024648Y010045D01*
X024657Y010071D01*
X024670Y010096D01*
X024687Y010119D01*
X024706Y010139D01*
X024728Y010156D01*
X024752Y010170D01*
X024778Y010180D01*
X024805Y010187D01*
X024833Y010190D01*
X024861Y010189D01*
X024888Y010184D01*
X024915Y010175D01*
X024940Y010163D01*
X024963Y010148D01*
X024984Y010129D01*
X025002Y010108D01*
X025017Y010084D01*
X025028Y010058D01*
X025036Y010032D01*
X025040Y010004D01*
X025040Y009976D01*
X025036Y009948D01*
X025028Y009922D01*
X025017Y009896D01*
X025002Y009872D01*
X024984Y009851D01*
X024963Y009832D01*
X024940Y009817D01*
X024915Y009805D01*
X024888Y009796D01*
X024861Y009791D01*
X024833Y009790D01*
X024805Y009793D01*
X024778Y009800D01*
X024752Y009810D01*
X024728Y009824D01*
X024706Y009841D01*
X024687Y009861D01*
X024670Y009884D01*
X024657Y009909D01*
X024648Y009935D01*
X024642Y009962D01*
X024640Y009990D01*
X024210Y010704D02*
X024210Y012304D01*
X023210Y012304D01*
X022210Y012304D01*
X022210Y010704D01*
X023210Y010704D01*
X023210Y012304D01*
X023210Y010704D01*
X024210Y010704D01*
X023710Y010904D02*
X023710Y011504D01*
X023460Y011504D01*
X023710Y011504D02*
X023710Y011754D01*
X023710Y011504D02*
X023960Y011504D01*
X023710Y011504D02*
X023960Y011104D01*
X023460Y011104D01*
X023710Y011504D01*
X022960Y011504D02*
X022710Y011504D01*
X022460Y011504D01*
X022710Y011504D02*
X022460Y011904D01*
X022960Y011904D01*
X022710Y011504D01*
X022710Y012104D01*
X022210Y012304D02*
X021210Y012304D01*
X020210Y012304D01*
X020210Y010704D01*
X021210Y010704D01*
X021210Y012304D01*
X021210Y010704D01*
X022210Y010704D01*
X022210Y012304D01*
X021710Y011754D02*
X021710Y011504D01*
X021460Y011504D01*
X021710Y011504D02*
X021960Y011504D01*
X021710Y011504D02*
X021960Y011104D01*
X021460Y011104D01*
X021710Y011504D01*
X021710Y010904D01*
X020960Y011504D02*
X020710Y011504D01*
X020460Y011504D01*
X020710Y011504D02*
X020460Y011904D01*
X020960Y011904D01*
X020710Y011504D01*
X020710Y012104D01*
X020710Y011504D02*
X020710Y011254D01*
X022710Y011254D02*
X022710Y011504D01*
X024640Y012020D02*
X024642Y012048D01*
X024648Y012075D01*
X024657Y012101D01*
X024670Y012126D01*
X024687Y012149D01*
X024706Y012169D01*
X024728Y012186D01*
X024752Y012200D01*
X024778Y012210D01*
X024805Y012217D01*
X024833Y012220D01*
X024861Y012219D01*
X024888Y012214D01*
X024915Y012205D01*
X024940Y012193D01*
X024963Y012178D01*
X024984Y012159D01*
X025002Y012138D01*
X025017Y012114D01*
X025028Y012088D01*
X025036Y012062D01*
X025040Y012034D01*
X025040Y012006D01*
X025036Y011978D01*
X025028Y011952D01*
X025017Y011926D01*
X025002Y011902D01*
X024984Y011881D01*
X024963Y011862D01*
X024940Y011847D01*
X024915Y011835D01*
X024888Y011826D01*
X024861Y011821D01*
X024833Y011820D01*
X024805Y011823D01*
X024778Y011830D01*
X024752Y011840D01*
X024728Y011854D01*
X024706Y011871D01*
X024687Y011891D01*
X024670Y011914D01*
X024657Y011939D01*
X024648Y011965D01*
X024642Y011992D01*
X024640Y012020D01*
X024640Y013990D02*
X024642Y014018D01*
X024648Y014045D01*
X024657Y014071D01*
X024670Y014096D01*
X024687Y014119D01*
X024706Y014139D01*
X024728Y014156D01*
X024752Y014170D01*
X024778Y014180D01*
X024805Y014187D01*
X024833Y014190D01*
X024861Y014189D01*
X024888Y014184D01*
X024915Y014175D01*
X024940Y014163D01*
X024963Y014148D01*
X024984Y014129D01*
X025002Y014108D01*
X025017Y014084D01*
X025028Y014058D01*
X025036Y014032D01*
X025040Y014004D01*
X025040Y013976D01*
X025036Y013948D01*
X025028Y013922D01*
X025017Y013896D01*
X025002Y013872D01*
X024984Y013851D01*
X024963Y013832D01*
X024940Y013817D01*
X024915Y013805D01*
X024888Y013796D01*
X024861Y013791D01*
X024833Y013790D01*
X024805Y013793D01*
X024778Y013800D01*
X024752Y013810D01*
X024728Y013824D01*
X024706Y013841D01*
X024687Y013861D01*
X024670Y013884D01*
X024657Y013909D01*
X024648Y013935D01*
X024642Y013962D01*
X024640Y013990D01*
X014676Y004474D02*
X010746Y004474D01*
X010746Y004394D01*
X014676Y004394D01*
X014676Y001794D01*
X014676Y000854D01*
X010746Y000854D01*
X010746Y001794D01*
X010746Y004394D01*
X011526Y003874D02*
X011528Y003902D01*
X011534Y003929D01*
X011543Y003955D01*
X011556Y003980D01*
X011573Y004003D01*
X011592Y004023D01*
X011614Y004040D01*
X011638Y004054D01*
X011664Y004064D01*
X011691Y004071D01*
X011719Y004074D01*
X011747Y004073D01*
X011774Y004068D01*
X011801Y004059D01*
X011826Y004047D01*
X011849Y004032D01*
X011870Y004013D01*
X011888Y003992D01*
X011903Y003968D01*
X011914Y003942D01*
X011922Y003916D01*
X011926Y003888D01*
X011926Y003860D01*
X011922Y003832D01*
X011914Y003806D01*
X011903Y003780D01*
X011888Y003756D01*
X011870Y003735D01*
X011849Y003716D01*
X011826Y003701D01*
X011801Y003689D01*
X011774Y003680D01*
X011747Y003675D01*
X011719Y003674D01*
X011691Y003677D01*
X011664Y003684D01*
X011638Y003694D01*
X011614Y003708D01*
X011592Y003725D01*
X011573Y003745D01*
X011556Y003768D01*
X011543Y003793D01*
X011534Y003819D01*
X011528Y003846D01*
X011526Y003874D01*
X013496Y003874D02*
X013498Y003902D01*
X013504Y003929D01*
X013513Y003955D01*
X013526Y003980D01*
X013543Y004003D01*
X013562Y004023D01*
X013584Y004040D01*
X013608Y004054D01*
X013634Y004064D01*
X013661Y004071D01*
X013689Y004074D01*
X013717Y004073D01*
X013744Y004068D01*
X013771Y004059D01*
X013796Y004047D01*
X013819Y004032D01*
X013840Y004013D01*
X013858Y003992D01*
X013873Y003968D01*
X013884Y003942D01*
X013892Y003916D01*
X013896Y003888D01*
X013896Y003860D01*
X013892Y003832D01*
X013884Y003806D01*
X013873Y003780D01*
X013858Y003756D01*
X013840Y003735D01*
X013819Y003716D01*
X013796Y003701D01*
X013771Y003689D01*
X013744Y003680D01*
X013717Y003675D01*
X013689Y003674D01*
X013661Y003677D01*
X013634Y003684D01*
X013608Y003694D01*
X013584Y003708D01*
X013562Y003725D01*
X013543Y003745D01*
X013526Y003768D01*
X013513Y003793D01*
X013504Y003819D01*
X013498Y003846D01*
X013496Y003874D01*
X014676Y004394D02*
X014676Y004474D01*
X014676Y001794D02*
X014046Y001794D01*
X013346Y001794D02*
X012076Y001794D01*
X011376Y001794D02*
X010746Y001794D01*
D14*
X011221Y001509D02*
X011446Y001509D01*
X011521Y001434D01*
X011521Y001284D01*
X011446Y001209D01*
X011221Y001209D01*
X011221Y001059D02*
X011221Y001509D01*
X011681Y001509D02*
X011681Y001059D01*
X011831Y001209D01*
X011981Y001059D01*
X011981Y001509D01*
X012141Y001509D02*
X012366Y001509D01*
X012441Y001434D01*
X012441Y001284D01*
X012366Y001209D01*
X012141Y001209D01*
X012141Y001059D02*
X012141Y001509D01*
X012291Y001209D02*
X012441Y001059D01*
X012901Y003279D02*
X013201Y003579D01*
X013201Y003654D01*
X013126Y003729D01*
X012976Y003729D01*
X012901Y003654D01*
X012901Y003279D02*
X013201Y003279D01*
X011251Y003279D02*
X010951Y003279D01*
X011101Y003279D02*
X011101Y003729D01*
X010951Y003579D01*
X017584Y007454D02*
X017659Y007379D01*
X017735Y007379D01*
X017810Y007454D01*
X017810Y007604D01*
X017885Y007679D01*
X017960Y007679D01*
X018035Y007604D01*
X018035Y007454D01*
X017960Y007379D01*
X017584Y007454D02*
X017584Y007604D01*
X017659Y007679D01*
X017584Y007839D02*
X018035Y008140D01*
X017584Y008140D01*
X017584Y008300D02*
X017584Y008600D01*
X017659Y008600D01*
X017960Y008300D01*
X018035Y008300D01*
X018035Y007839D02*
X017584Y007839D01*
X017584Y008760D02*
X017810Y008760D01*
X017735Y008910D01*
X017735Y008985D01*
X017810Y009060D01*
X017960Y009060D01*
X018035Y008985D01*
X018035Y008835D01*
X017960Y008760D01*
X017584Y008760D02*
X017584Y009060D01*
X017810Y009220D02*
X017810Y009521D01*
X017810Y009681D02*
X017810Y009981D01*
X017735Y010141D02*
X017584Y010291D01*
X018035Y010291D01*
X018035Y010141D02*
X018035Y010441D01*
X017960Y010601D02*
X018035Y010676D01*
X018035Y010827D01*
X017960Y010902D01*
X017659Y010902D01*
X017960Y010601D01*
X017659Y010601D01*
X017584Y010676D01*
X017584Y010827D01*
X017659Y010902D01*
X017584Y009906D02*
X017810Y009681D01*
X018035Y009906D02*
X017584Y009906D01*
X017584Y009446D02*
X017810Y009220D01*
X018035Y009446D02*
X017584Y009446D01*
X020084Y009729D02*
X020084Y009954D01*
X020159Y010029D01*
X020460Y010029D01*
X020535Y009954D01*
X020535Y009729D01*
X020084Y009729D01*
X020084Y010189D02*
X020084Y010490D01*
X020159Y010490D01*
X020460Y010189D01*
X020535Y010189D01*
X021134Y010194D02*
X021134Y010344D01*
X021209Y010419D01*
X021285Y010419D01*
X021360Y010344D01*
X021435Y010419D01*
X021510Y010419D01*
X021585Y010344D01*
X021585Y010194D01*
X021510Y010119D01*
X021510Y009958D02*
X021209Y009958D01*
X021134Y009883D01*
X021134Y009658D01*
X021585Y009658D01*
X021585Y009883D01*
X021510Y009958D01*
X021209Y010119D02*
X021134Y010194D01*
X021360Y010269D02*
X021360Y010344D01*
X022084Y010490D02*
X022084Y010189D01*
X022310Y010189D01*
X022235Y010339D01*
X022235Y010414D01*
X022310Y010490D01*
X022460Y010490D01*
X022535Y010414D01*
X022535Y010264D01*
X022460Y010189D01*
X022460Y010029D02*
X022159Y010029D01*
X022084Y009954D01*
X022084Y009729D01*
X022535Y009729D01*
X022535Y009954D01*
X022460Y010029D01*
X023134Y009883D02*
X023134Y009658D01*
X023585Y009658D01*
X023585Y009883D01*
X023510Y009958D01*
X023209Y009958D01*
X023134Y009883D01*
X023285Y010119D02*
X023134Y010269D01*
X023585Y010269D01*
X023585Y010119D02*
X023585Y010419D01*
X024984Y011395D02*
X025135Y011245D01*
X024984Y011395D02*
X025435Y011395D01*
X025435Y011245D02*
X025435Y011545D01*
X027204Y011515D02*
X027204Y011665D01*
X027204Y011590D02*
X027655Y011590D01*
X027655Y011515D02*
X027655Y011665D01*
X027655Y011822D02*
X027655Y012122D01*
X027655Y011972D02*
X027204Y011972D01*
X027355Y011822D01*
X025435Y013195D02*
X025135Y013495D01*
X025059Y013495D01*
X024984Y013420D01*
X024984Y013270D01*
X025059Y013195D01*
X025435Y013195D02*
X025435Y013495D01*
X025435Y015245D02*
X025435Y015545D01*
X025435Y015395D02*
X024984Y015395D01*
X025135Y015245D01*
X027204Y015515D02*
X027204Y015665D01*
X027204Y015590D02*
X027655Y015590D01*
X027655Y015515D02*
X027655Y015665D01*
X027655Y015822D02*
X027355Y016122D01*
X027279Y016122D01*
X027204Y016047D01*
X027204Y015897D01*
X027279Y015822D01*
X027655Y015822D02*
X027655Y016122D01*
X025435Y017195D02*
X025135Y017495D01*
X025059Y017495D01*
X024984Y017420D01*
X024984Y017270D01*
X025059Y017195D01*
X025435Y017195D02*
X025435Y017495D01*
X025435Y009495D02*
X025435Y009195D01*
X025135Y009495D01*
X025059Y009495D01*
X024984Y009420D01*
X024984Y009270D01*
X025059Y009195D01*
X027204Y008125D02*
X027655Y008125D01*
X027655Y007975D02*
X027655Y008275D01*
X027355Y007975D02*
X027204Y008125D01*
X027204Y007815D02*
X027655Y007815D01*
X027355Y007665D02*
X027204Y007815D01*
X027355Y007665D02*
X027204Y007515D01*
X027655Y007515D01*
X025435Y007545D02*
X025435Y007245D01*
X025435Y007395D02*
X024984Y007395D01*
X025135Y007245D01*
X025135Y005495D02*
X025059Y005495D01*
X024984Y005420D01*
X024984Y005270D01*
X025059Y005195D01*
X025135Y005495D02*
X025435Y005195D01*
X025435Y005495D01*
X023535Y004740D02*
X023535Y004439D01*
X023235Y004740D01*
X023159Y004740D01*
X023084Y004664D01*
X023084Y004514D01*
X023159Y004439D01*
X023159Y004279D02*
X023084Y004204D01*
X023084Y003979D01*
X023535Y003979D01*
X023535Y004204D01*
X023460Y004279D01*
X023159Y004279D01*
X022585Y004133D02*
X022585Y003908D01*
X022134Y003908D01*
X022134Y004133D01*
X022209Y004208D01*
X022510Y004208D01*
X022585Y004133D01*
X022510Y004369D02*
X022360Y004369D01*
X022360Y004594D01*
X022435Y004669D01*
X022510Y004669D01*
X022585Y004594D01*
X022585Y004444D01*
X022510Y004369D01*
X022360Y004369D02*
X022209Y004519D01*
X022134Y004669D01*
X021535Y004664D02*
X021084Y004664D01*
X021310Y004439D01*
X021310Y004740D01*
X021460Y004279D02*
X021159Y004279D01*
X021084Y004204D01*
X021084Y003979D01*
X021535Y003979D01*
X021535Y004204D01*
X021460Y004279D01*
X020585Y004133D02*
X020585Y003908D01*
X020134Y003908D01*
X020134Y004133D01*
X020209Y004208D01*
X020510Y004208D01*
X020585Y004133D01*
X020510Y004369D02*
X020435Y004369D01*
X020360Y004444D01*
X020360Y004594D01*
X020435Y004669D01*
X020510Y004669D01*
X020585Y004594D01*
X020585Y004444D01*
X020510Y004369D01*
X020360Y004444D02*
X020285Y004369D01*
X020209Y004369D01*
X020134Y004444D01*
X020134Y004594D01*
X020209Y004669D01*
X020285Y004669D01*
X020360Y004594D01*
X024984Y003395D02*
X025135Y003245D01*
X024984Y003395D02*
X025435Y003395D01*
X025435Y003245D02*
X025435Y003545D01*
X027204Y003515D02*
X027355Y003665D01*
X027204Y003815D01*
X027655Y003815D01*
X027655Y003975D02*
X027355Y004275D01*
X027279Y004275D01*
X027204Y004200D01*
X027204Y004050D01*
X027279Y003975D01*
X027655Y003975D02*
X027655Y004275D01*
X027655Y003515D02*
X027204Y003515D01*
X013335Y011764D02*
X013065Y011764D01*
X013200Y011629D01*
X013200Y011809D01*
X013290Y011924D02*
X013290Y011969D01*
X013335Y011969D01*
X013335Y011924D01*
X013290Y011924D01*
X013290Y012071D02*
X013335Y012071D01*
X013290Y012071D02*
X013110Y012251D01*
X013065Y012251D01*
X013065Y012071D01*
X013065Y012366D02*
X013335Y012366D01*
X013245Y012366D02*
X013155Y012501D01*
X013245Y012366D02*
X013335Y012501D01*
X012435Y011754D02*
X012435Y011574D01*
X012435Y011664D02*
X012165Y011664D01*
X012255Y011574D01*
X012210Y011459D02*
X012300Y011459D01*
X012345Y011414D01*
X012345Y011279D01*
X012435Y011279D02*
X012165Y011279D01*
X012165Y011414D01*
X012210Y011459D01*
X012345Y011369D02*
X012435Y011459D01*
X011835Y011469D02*
X011835Y011424D01*
X011790Y011424D01*
X011790Y011469D01*
X011835Y011469D01*
X011835Y011571D02*
X011790Y011571D01*
X011610Y011751D01*
X011565Y011751D01*
X011565Y011571D01*
X011700Y011309D02*
X011700Y011129D01*
X011565Y011264D01*
X011835Y011264D01*
X011835Y011866D02*
X011565Y011866D01*
X011655Y012001D02*
X011745Y011866D01*
X011835Y012001D01*
X010935Y011254D02*
X010935Y011074D01*
X010755Y011254D01*
X010710Y011254D01*
X010665Y011209D01*
X010665Y011119D01*
X010710Y011074D01*
X010710Y010959D02*
X010800Y010959D01*
X010845Y010914D01*
X010845Y010779D01*
X010935Y010779D02*
X010665Y010779D01*
X010665Y010914D01*
X010710Y010959D01*
X010845Y010869D02*
X010935Y010959D01*
X010935Y016029D02*
X010935Y016179D01*
X010935Y016104D02*
X010484Y016104D01*
X010484Y016029D02*
X010484Y016179D01*
X010559Y016336D02*
X010635Y016336D01*
X010710Y016411D01*
X010710Y016561D01*
X010785Y016636D01*
X010860Y016636D01*
X010935Y016561D01*
X010935Y016411D01*
X010860Y016336D01*
X010559Y016336D02*
X010484Y016411D01*
X010484Y016561D01*
X010559Y016636D01*
X010484Y016796D02*
X010484Y017021D01*
X010559Y017096D01*
X010710Y017096D01*
X010785Y017021D01*
X010785Y016796D01*
X010935Y016796D02*
X010484Y016796D01*
D15*
X015803Y016649D02*
X016224Y016649D01*
X016013Y016649D02*
X016013Y016019D01*
X016448Y016019D02*
X016658Y016019D01*
X016553Y016019D02*
X016553Y016649D01*
X016448Y016649D02*
X016658Y016649D01*
X016877Y016649D02*
X017298Y016019D01*
X017298Y016649D01*
X017522Y016649D02*
X017522Y016544D01*
X017732Y016334D01*
X017732Y016019D01*
X018166Y016019D02*
X018587Y016439D01*
X018587Y016544D01*
X018482Y016649D01*
X018272Y016649D01*
X018166Y016544D01*
X017942Y016544D02*
X017732Y016334D01*
X017942Y016544D02*
X017942Y016649D01*
X018166Y016019D02*
X018587Y016019D01*
X018811Y016124D02*
X018916Y016019D01*
X019126Y016019D01*
X019231Y016124D01*
X019231Y016229D01*
X019126Y016334D01*
X019021Y016334D01*
X019126Y016334D02*
X019231Y016439D01*
X019231Y016544D01*
X019126Y016649D01*
X018916Y016649D01*
X018811Y016544D01*
X019456Y016439D02*
X019666Y016649D01*
X019666Y016019D01*
X019456Y016019D02*
X019876Y016019D01*
X020100Y016124D02*
X020205Y016019D01*
X020415Y016019D01*
X020520Y016124D01*
X020520Y016229D01*
X020415Y016334D01*
X020310Y016334D01*
X020415Y016334D02*
X020520Y016439D01*
X020520Y016544D01*
X020415Y016649D01*
X020205Y016649D01*
X020100Y016544D01*
X016877Y016649D02*
X016877Y016019D01*
D16*
X021710Y012054D03*
X022710Y010954D03*
X023710Y012054D03*
X020710Y010954D03*
X020710Y006054D03*
X021710Y004954D03*
X022710Y006054D03*
X023710Y004954D03*
D17*
X023710Y004329D03*
X022710Y004329D03*
X021710Y004329D03*
X020710Y004329D03*
X020710Y006679D03*
X021710Y006679D03*
X022710Y006679D03*
X023710Y006679D03*
X023710Y010329D03*
X022710Y010329D03*
X021710Y010329D03*
X020710Y010329D03*
X020710Y012679D03*
X021710Y012679D03*
X022710Y012679D03*
X023710Y012679D03*
D18*
X013682Y013744D02*
X013682Y011264D01*
X012737Y011264D01*
X012737Y013744D01*
X013682Y013744D01*
X012182Y013244D02*
X012182Y010764D01*
X011237Y010764D01*
X011237Y013244D01*
X012182Y013244D01*
X012430Y009004D02*
X012432Y009075D01*
X012438Y009146D01*
X012448Y009217D01*
X012462Y009286D01*
X012479Y009355D01*
X012501Y009423D01*
X012526Y009490D01*
X012555Y009555D01*
X012587Y009618D01*
X012623Y009680D01*
X012662Y009739D01*
X012705Y009796D01*
X012750Y009851D01*
X012799Y009903D01*
X012850Y009952D01*
X012904Y009998D01*
X012961Y010042D01*
X013019Y010082D01*
X013080Y010118D01*
X013143Y010152D01*
X013208Y010181D01*
X013274Y010207D01*
X013342Y010230D01*
X013410Y010248D01*
X013480Y010263D01*
X013550Y010274D01*
X013621Y010281D01*
X013692Y010284D01*
X013763Y010283D01*
X013834Y010278D01*
X013905Y010269D01*
X013975Y010256D01*
X014044Y010240D01*
X014112Y010219D01*
X014179Y010195D01*
X014245Y010167D01*
X014308Y010135D01*
X014370Y010100D01*
X014430Y010062D01*
X014488Y010020D01*
X014543Y009976D01*
X014596Y009928D01*
X014646Y009877D01*
X014693Y009824D01*
X014737Y009768D01*
X014778Y009710D01*
X014816Y009649D01*
X014850Y009587D01*
X014880Y009522D01*
X014907Y009457D01*
X014931Y009389D01*
X014950Y009321D01*
X014966Y009252D01*
X014978Y009181D01*
X014986Y009111D01*
X014990Y009040D01*
X014990Y008968D01*
X014986Y008897D01*
X014978Y008827D01*
X014966Y008756D01*
X014950Y008687D01*
X014931Y008619D01*
X014907Y008551D01*
X014880Y008486D01*
X014850Y008421D01*
X014816Y008359D01*
X014778Y008298D01*
X014737Y008240D01*
X014693Y008184D01*
X014646Y008131D01*
X014596Y008080D01*
X014543Y008032D01*
X014488Y007988D01*
X014430Y007946D01*
X014370Y007908D01*
X014308Y007873D01*
X014245Y007841D01*
X014179Y007813D01*
X014112Y007789D01*
X014044Y007768D01*
X013975Y007752D01*
X013905Y007739D01*
X013834Y007730D01*
X013763Y007725D01*
X013692Y007724D01*
X013621Y007727D01*
X013550Y007734D01*
X013480Y007745D01*
X013410Y007760D01*
X013342Y007778D01*
X013274Y007801D01*
X013208Y007827D01*
X013143Y007856D01*
X013080Y007890D01*
X013019Y007926D01*
X012961Y007966D01*
X012904Y008010D01*
X012850Y008056D01*
X012799Y008105D01*
X012750Y008157D01*
X012705Y008212D01*
X012662Y008269D01*
X012623Y008328D01*
X012587Y008390D01*
X012555Y008453D01*
X012526Y008518D01*
X012501Y008585D01*
X012479Y008653D01*
X012462Y008722D01*
X012448Y008791D01*
X012438Y008862D01*
X012432Y008933D01*
X012430Y009004D01*
X013210Y008754D02*
X013210Y008254D01*
X013460Y006504D02*
X012960Y006504D01*
X012430Y006004D02*
X012432Y006075D01*
X012438Y006146D01*
X012448Y006217D01*
X012462Y006286D01*
X012479Y006355D01*
X012501Y006423D01*
X012526Y006490D01*
X012555Y006555D01*
X012587Y006618D01*
X012623Y006680D01*
X012662Y006739D01*
X012705Y006796D01*
X012750Y006851D01*
X012799Y006903D01*
X012850Y006952D01*
X012904Y006998D01*
X012961Y007042D01*
X013019Y007082D01*
X013080Y007118D01*
X013143Y007152D01*
X013208Y007181D01*
X013274Y007207D01*
X013342Y007230D01*
X013410Y007248D01*
X013480Y007263D01*
X013550Y007274D01*
X013621Y007281D01*
X013692Y007284D01*
X013763Y007283D01*
X013834Y007278D01*
X013905Y007269D01*
X013975Y007256D01*
X014044Y007240D01*
X014112Y007219D01*
X014179Y007195D01*
X014245Y007167D01*
X014308Y007135D01*
X014370Y007100D01*
X014430Y007062D01*
X014488Y007020D01*
X014543Y006976D01*
X014596Y006928D01*
X014646Y006877D01*
X014693Y006824D01*
X014737Y006768D01*
X014778Y006710D01*
X014816Y006649D01*
X014850Y006587D01*
X014880Y006522D01*
X014907Y006457D01*
X014931Y006389D01*
X014950Y006321D01*
X014966Y006252D01*
X014978Y006181D01*
X014986Y006111D01*
X014990Y006040D01*
X014990Y005968D01*
X014986Y005897D01*
X014978Y005827D01*
X014966Y005756D01*
X014950Y005687D01*
X014931Y005619D01*
X014907Y005551D01*
X014880Y005486D01*
X014850Y005421D01*
X014816Y005359D01*
X014778Y005298D01*
X014737Y005240D01*
X014693Y005184D01*
X014646Y005131D01*
X014596Y005080D01*
X014543Y005032D01*
X014488Y004988D01*
X014430Y004946D01*
X014370Y004908D01*
X014308Y004873D01*
X014245Y004841D01*
X014179Y004813D01*
X014112Y004789D01*
X014044Y004768D01*
X013975Y004752D01*
X013905Y004739D01*
X013834Y004730D01*
X013763Y004725D01*
X013692Y004724D01*
X013621Y004727D01*
X013550Y004734D01*
X013480Y004745D01*
X013410Y004760D01*
X013342Y004778D01*
X013274Y004801D01*
X013208Y004827D01*
X013143Y004856D01*
X013080Y004890D01*
X013019Y004926D01*
X012961Y004966D01*
X012904Y005010D01*
X012850Y005056D01*
X012799Y005105D01*
X012750Y005157D01*
X012705Y005212D01*
X012662Y005269D01*
X012623Y005328D01*
X012587Y005390D01*
X012555Y005453D01*
X012526Y005518D01*
X012501Y005585D01*
X012479Y005653D01*
X012462Y005722D01*
X012448Y005791D01*
X012438Y005862D01*
X012432Y005933D01*
X012430Y006004D01*
D19*
X013415Y006684D02*
X013440Y006659D01*
X013490Y006659D01*
X013515Y006684D01*
X013562Y006659D02*
X013662Y006659D01*
X013612Y006659D02*
X013612Y006809D01*
X013562Y006759D01*
X013515Y006784D02*
X013490Y006809D01*
X013440Y006809D01*
X013415Y006784D01*
X013415Y006684D01*
X013030Y008709D02*
X013055Y008734D01*
X013055Y008784D01*
X013030Y008809D01*
X013055Y008856D02*
X012955Y008956D01*
X012930Y008956D01*
X012905Y008931D01*
X012905Y008881D01*
X012930Y008856D01*
X012930Y008809D02*
X012905Y008784D01*
X012905Y008734D01*
X012930Y008709D01*
X013030Y008709D01*
X013055Y008856D02*
X013055Y008956D01*
M02*
