G75*
G70*
%OFA0B0*%
%FSLAX24Y24*%
%IPPOS*%
%LPD*%
%AMOC8*
5,1,8,0,0,1.08239X$1,22.5*
%
%ADD10C,0.0000*%
%ADD11C,0.0160*%
%ADD12OC8,0.0660*%
%ADD13C,0.0520*%
%ADD14C,0.0705*%
%ADD15C,0.0660*%
%ADD16R,0.0740X0.0740*%
%ADD17OC8,0.0740*%
%ADD18C,0.0650*%
%ADD19R,0.0650X0.0650*%
%ADD20C,0.0740*%
%ADD21C,0.0320*%
%ADD22C,0.0120*%
D10*
X010210Y000504D02*
X010210Y021500D01*
X028080Y014504D02*
X028082Y014554D01*
X028088Y014604D01*
X028098Y014653D01*
X028112Y014701D01*
X028129Y014748D01*
X028150Y014793D01*
X028175Y014837D01*
X028203Y014878D01*
X028235Y014917D01*
X028269Y014954D01*
X028306Y014988D01*
X028346Y015018D01*
X028388Y015045D01*
X028432Y015069D01*
X028478Y015090D01*
X028525Y015106D01*
X028573Y015119D01*
X028623Y015128D01*
X028672Y015133D01*
X028723Y015134D01*
X028773Y015131D01*
X028822Y015124D01*
X028871Y015113D01*
X028919Y015098D01*
X028965Y015080D01*
X029010Y015058D01*
X029053Y015032D01*
X029094Y015003D01*
X029133Y014971D01*
X029169Y014936D01*
X029201Y014898D01*
X029231Y014858D01*
X029258Y014815D01*
X029281Y014771D01*
X029300Y014725D01*
X029316Y014677D01*
X029328Y014628D01*
X029336Y014579D01*
X029340Y014529D01*
X029340Y014479D01*
X029336Y014429D01*
X029328Y014380D01*
X029316Y014331D01*
X029300Y014283D01*
X029281Y014237D01*
X029258Y014193D01*
X029231Y014150D01*
X029201Y014110D01*
X029169Y014072D01*
X029133Y014037D01*
X029094Y014005D01*
X029053Y013976D01*
X029010Y013950D01*
X028965Y013928D01*
X028919Y013910D01*
X028871Y013895D01*
X028822Y013884D01*
X028773Y013877D01*
X028723Y013874D01*
X028672Y013875D01*
X028623Y013880D01*
X028573Y013889D01*
X028525Y013902D01*
X028478Y013918D01*
X028432Y013939D01*
X028388Y013963D01*
X028346Y013990D01*
X028306Y014020D01*
X028269Y014054D01*
X028235Y014091D01*
X028203Y014130D01*
X028175Y014171D01*
X028150Y014215D01*
X028129Y014260D01*
X028112Y014307D01*
X028098Y014355D01*
X028088Y014404D01*
X028082Y014454D01*
X028080Y014504D01*
D11*
X010210Y021504D02*
X010210Y000504D01*
X028710Y000504D01*
X028710Y001504D01*
X029710Y002504D01*
X029710Y015504D01*
X028710Y016504D01*
X028710Y021004D01*
X028210Y021504D01*
X010210Y021504D01*
X013110Y020504D02*
X013110Y019404D01*
X011710Y018004D01*
X011710Y017504D01*
X012210Y017004D02*
X012710Y016504D01*
X012710Y015504D02*
X013710Y015504D01*
X016210Y018004D01*
X017210Y018004D02*
X018210Y019004D01*
X026710Y019004D01*
X027210Y018504D01*
X027210Y011004D01*
X028210Y010004D01*
X028210Y003504D01*
X026710Y002004D01*
X026710Y001504D01*
X027710Y001504D02*
X027710Y002504D01*
X028710Y003504D01*
X028710Y010004D01*
X027710Y011004D01*
X027710Y018504D01*
X026710Y019504D01*
X016710Y019504D01*
X015210Y018004D01*
X014210Y019004D01*
X013210Y019004D01*
X012210Y018004D01*
X011210Y017004D02*
X010710Y016504D01*
X010710Y015004D01*
X011710Y014004D01*
X012710Y014004D02*
X011710Y015004D01*
X011710Y015504D01*
X013210Y014504D02*
X013710Y014004D01*
X014210Y014004D01*
X014710Y014504D01*
X014710Y015504D01*
X017210Y018004D01*
X017710Y016504D02*
X019210Y018004D01*
X017710Y016504D02*
X017710Y014504D01*
X017210Y014004D01*
X016210Y014004D01*
X014210Y012004D01*
X014210Y007004D01*
X015710Y005504D01*
X018210Y005504D01*
X018710Y005004D01*
X019210Y005004D01*
X019210Y006004D02*
X017210Y006004D01*
X016710Y006504D01*
X015710Y006504D01*
X015210Y007004D01*
X015210Y012004D01*
X016210Y013004D01*
X018710Y013004D01*
X019210Y013504D01*
X019210Y015004D01*
X018710Y015504D02*
X019210Y016004D01*
X020210Y016004D01*
X021210Y015004D01*
X020210Y015004D02*
X019710Y014504D01*
X019710Y013504D01*
X017210Y011004D01*
X016210Y011004D01*
X014710Y012004D02*
X016210Y013504D01*
X018210Y013504D01*
X018710Y014004D01*
X018710Y015504D01*
X020210Y014004D02*
X023210Y014004D01*
X023710Y014504D01*
X023710Y017504D01*
X023210Y018004D01*
X020210Y014004D02*
X020210Y012004D01*
X019210Y011004D01*
X014710Y012004D02*
X014710Y007004D01*
X015710Y006004D01*
X016210Y006004D01*
X016710Y003504D02*
X012710Y003504D01*
X012710Y009504D01*
X013710Y009504D01*
X012710Y009504D02*
X012710Y010004D01*
X011710Y010004D01*
X012710Y010004D02*
X012710Y010504D01*
X013210Y010504D01*
X012710Y010504D02*
X012710Y014004D01*
X012710Y003504D02*
X011726Y002520D01*
X011726Y002504D01*
X016710Y003504D02*
X017710Y002504D01*
X017710Y001504D01*
D12*
X017710Y001504D03*
X018710Y001504D03*
X019710Y001504D03*
X020710Y001504D03*
X022710Y001504D03*
X023710Y001504D03*
X024710Y001504D03*
X025710Y001504D03*
X026710Y001504D03*
X027710Y001504D03*
X016710Y001504D03*
X015710Y001504D03*
X016110Y020504D03*
X015110Y020504D03*
X014110Y020504D03*
X013110Y020504D03*
X012110Y020504D03*
X017110Y020504D03*
X018110Y020504D03*
X019110Y020504D03*
X020710Y020504D03*
X021710Y020504D03*
X022710Y020504D03*
X023710Y020504D03*
X024710Y020504D03*
X025710Y020504D03*
X026710Y020504D03*
X027710Y020504D03*
D13*
X023210Y018264D02*
X023210Y017744D01*
X022210Y017744D02*
X022210Y018264D01*
X021210Y018264D02*
X021210Y017744D01*
X020210Y017744D02*
X020210Y018264D01*
X019210Y018264D02*
X019210Y017744D01*
X018210Y017744D02*
X018210Y018264D01*
X017210Y018264D02*
X017210Y017744D01*
X016210Y017744D02*
X016210Y018264D01*
X015210Y018264D02*
X015210Y017744D01*
X014210Y017744D02*
X014210Y018264D01*
X014210Y015264D02*
X014210Y014744D01*
X015210Y014744D02*
X015210Y015264D01*
X016210Y015264D02*
X016210Y014744D01*
X017210Y014744D02*
X017210Y015264D01*
X018210Y015264D02*
X018210Y014744D01*
X019210Y014744D02*
X019210Y015264D01*
X020210Y015264D02*
X020210Y014744D01*
X021210Y014744D02*
X021210Y015264D01*
X022210Y015264D02*
X022210Y014744D01*
X023210Y014744D02*
X023210Y015264D01*
X019470Y012004D02*
X018950Y012004D01*
X018950Y011004D02*
X019470Y011004D01*
X019470Y010004D02*
X018950Y010004D01*
X018950Y009004D02*
X019470Y009004D01*
X019470Y008004D02*
X018950Y008004D01*
X018950Y007004D02*
X019470Y007004D01*
X019470Y006004D02*
X018950Y006004D01*
X018950Y005004D02*
X019470Y005004D01*
X016470Y005004D02*
X015950Y005004D01*
X015950Y006004D02*
X016470Y006004D01*
X016470Y007004D02*
X015950Y007004D01*
X015950Y008004D02*
X016470Y008004D01*
X016470Y009004D02*
X015950Y009004D01*
X015950Y010004D02*
X016470Y010004D01*
X016470Y011004D02*
X015950Y011004D01*
X015950Y012004D02*
X016470Y012004D01*
D14*
X025857Y012020D02*
X026562Y012020D01*
X026562Y013988D02*
X025857Y013988D01*
X025857Y016020D02*
X026562Y016020D01*
X026562Y017988D02*
X025857Y017988D01*
X025857Y009988D02*
X026562Y009988D01*
X026562Y008020D02*
X025857Y008020D01*
X025857Y005988D02*
X026562Y005988D01*
X026562Y004020D02*
X025857Y004020D01*
X013694Y002856D02*
X013694Y002151D01*
X011726Y002151D02*
X011726Y002856D01*
D15*
X020710Y003504D03*
X021710Y003504D03*
X022710Y003504D03*
X023710Y003504D03*
X023710Y007504D03*
X022710Y007504D03*
X021710Y007504D03*
X020710Y007504D03*
X020710Y009504D03*
X021710Y009504D03*
X022710Y009504D03*
X023710Y009504D03*
X023710Y013504D03*
X022710Y013504D03*
X021710Y013504D03*
X020710Y013504D03*
D16*
X012710Y015504D03*
D17*
X011710Y015504D03*
X011710Y016504D03*
X012710Y016504D03*
X012710Y017504D03*
X011710Y017504D03*
D18*
X013710Y008504D03*
X013210Y006004D03*
D19*
X014210Y006004D03*
X013710Y009504D03*
D20*
X013210Y010504D03*
X011710Y010004D03*
X011710Y014004D03*
X013210Y014504D03*
D21*
X018210Y010004D02*
X018710Y010504D01*
X021710Y010504D01*
X022710Y009504D01*
X023710Y009504D01*
X025726Y009504D01*
X026210Y009988D01*
X026710Y011004D02*
X023710Y011004D01*
X023710Y013504D01*
X021710Y013504D02*
X021710Y012504D01*
X023210Y011004D01*
X023710Y011004D01*
X026710Y011004D02*
X027710Y010004D01*
X027710Y003504D01*
X026710Y002504D01*
X023710Y002504D01*
X023710Y003504D01*
X023710Y002504D02*
X021710Y002504D01*
X021710Y003504D01*
X021710Y002504D02*
X020710Y001504D01*
X017210Y005004D01*
X016210Y005004D01*
X015210Y005004D01*
X014210Y006004D01*
X016210Y007004D02*
X018210Y007004D01*
X018710Y006504D01*
X021710Y006504D01*
X022710Y007504D01*
X023710Y007504D01*
X025694Y007504D01*
X026210Y008020D01*
X018210Y010004D02*
X016210Y010004D01*
D22*
X012210Y017004D02*
X011210Y017004D01*
X012210Y017004D02*
X012210Y018004D01*
M02*
