%
M48
M72
T01C0.0276
T02C0.0320
T03C0.0354
T04C0.0394
T05C0.0400
T06C0.0440
T07C0.0470
T08C0.1260
%
T01
X13210Y6004
X14210Y6004
X13710Y8504
X13710Y9504
T02
X16210Y10004
X16210Y11004
X16210Y12004
X19210Y12004
X19210Y11004
X19210Y10004
X19210Y9004
X19210Y8004
X19210Y7004
X19210Y6004
X19210Y5004
X16210Y5004
X16210Y6004
X16210Y7004
X16210Y8004
X16210Y9004
X16210Y15004
X17210Y15004
X18210Y15004
X19210Y15004
X20210Y15004
X21210Y15004
X22210Y15004
X23210Y15004
X23210Y18004
X22210Y18004
X21210Y18004
X20210Y18004
X19210Y18004
X18210Y18004
X17210Y18004
X16210Y18004
X15210Y18004
X14210Y18004
X14210Y15004
X15210Y15004
T03
X13210Y14504
X11710Y14004
X13210Y10504
X11710Y10004
T04
X15710Y1504
X16710Y1504
X17710Y1504
X18710Y1504
X19710Y1504
X20710Y1504
X22710Y1504
X23710Y1504
X24710Y1504
X25710Y1504
X26710Y1504
X27710Y1504
X27710Y20504
X26710Y20504
X25710Y20504
X24710Y20504
X23710Y20504
X22710Y20504
X21710Y20504
X20710Y20504
X19110Y20504
X18110Y20504
X17110Y20504
X16110Y20504
X15110Y20504
X14110Y20504
X13110Y20504
X12110Y20504
T05
X11710Y17504
X12710Y17504
X12710Y16504
X11710Y16504
X11710Y15504
X12710Y15504
T06
X20710Y13504
X21710Y13504
X22710Y13504
X23710Y13504
X23710Y9504
X22710Y9504
X21710Y9504
X20710Y9504
X20710Y7504
X21710Y7504
X22710Y7504
X23710Y7504
X23710Y3504
X22710Y3504
X21710Y3504
X20710Y3504
T07
X11726Y2504
X13694Y2504
X26210Y4020
X26210Y5988
X26210Y8020
X26210Y9988
X26210Y12020
X26210Y13988
X26210Y16020
X26210Y17988
T08
X28710Y14504
M30
